<?xml version="1.0" standalone="no"?>
<!DOCTYPE svg PUBLIC "-//W3C//DTD SVG 20010904//EN"
 "http://www.w3.org/TR/2001/REC-SVG-20010904/DTD/svg10.dtd">
<svg version="1.0" xmlns="http://www.w3.org/2000/svg"
 width="102.000000pt" height="102.000000pt" viewBox="0 0 102.000000 102.000000"
 preserveAspectRatio="xMidYMid meet">

<g transform="translate(0.000000,102.000000) scale(0.100000,-0.100000)"
fill="#000000" stroke="none">
<path d="M615 820 c-4 -7 -1 -10 6 -8 8 1 14 -2 14 -7 0 -6 -6 -9 -15 -7 -8 2
9 -13 39 -34 l54 -37 -24 -18 c-13 -10 -28 -19 -34 -19 -5 0 4 -12 20 -25 38
-31 29 -48 -42 -84 -29 -14 -52 -29 -52 -33 -1 -13 44 -9 58 5 10 10 12 8 9
-7 -3 -21 -102 -85 -131 -86 -10 0 -44 13 -77 30 -54 27 -59 33 -62 67 -3 42
-15 50 -43 28 -20 -15 -20 -15 0 -9 19 5 19 5 3 -9 -10 -8 -14 -18 -10 -22 4
-5 2 -5 -4 -2 -7 4 -14 1 -17 -7 -7 -17 21 -58 34 -51 5 3 6 0 3 -8 -5 -15 51
-58 99 -76 41 -16 119 -13 161 4 55 23 123 90 142 140 23 62 16 158 -17 207
-13 21 -28 38 -32 38 -5 0 -5 -5 -1 -12 4 -7 3 -8 -4 -4 -6 4 -9 13 -6 20 9
25 -57 48 -71 26z m59 -9 c3 -5 -2 -15 -12 -22 -15 -12 -16 -12 -5 2 7 9 10
19 6 22 -3 4 -4 7 0 7 3 0 8 -4 11 -9z"/>
<path d="M496 779 c6 -11 31 -12 37 -1 3 4 -6 8 -19 8 -13 1 -21 -2 -18 -7z"/>
<path d="M455 723 c-33 -19 -61 -36 -63 -38 -4 -3 117 -75 127 -75 20 0 30 24
18 44 -6 12 -14 40 -17 63 l-5 41 -60 -35z"/>
<path d="M763 730 c27 -110 12 -189 -53 -262 -69 -79 -164 -109 -260 -84 -30
8 -56 13 -58 11 -2 -1 32 -17 75 -35 76 -32 79 -33 151 -21 106 16 161 48 205
118 50 79 34 190 -39 268 -27 29 -27 29 -21 5z"/>
<path d="M350 685 c7 -8 17 -12 22 -9 6 4 5 10 -3 15 -22 14 -33 10 -19 -6z"/>
<path d="M483 574 l-28 -26 30 20 c27 19 31 19 54 3 14 -9 22 -11 18 -4 -20
31 -45 34 -74 7z"/>
<path d="M750 226 c0 -57 -12 -60 -229 -66 l-196 -5 30 -20 c26 -18 49 -20
220 -23 184 -3 191 -2 213 19 26 24 25 63 -3 106 -22 33 -35 29 -35 -11z"/>
<path d="M423 227 c0 -12 1 -16 4 -9 3 6 9 12 14 12 6 0 7 -4 4 -10 -3 -5 -1
-10 4 -10 6 0 11 5 11 11 0 8 4 8 14 0 11 -9 15 -9 19 1 4 10 8 10 16 -2 9
-13 11 -12 11 3 0 15 -6 17 -32 14 -18 -2 -40 -1 -48 4 -12 5 -16 2 -17 -14z"/>
<path d="M565 240 c-3 -6 -3 -10 2 -9 4 1 15 1 23 0 12 -1 12 -3 2 -10 -9 -5
-3 -8 17 -9 17 0 31 4 31 9 0 6 7 6 19 -1 26 -13 31 -13 31 4 0 16 -37 18 -57
4 -7 -6 -21 -3 -36 7 -17 11 -27 13 -32 5z"/>
<path d="M815 241 c-7 -12 12 -24 25 -16 11 7 4 25 -10 25 -5 0 -11 -4 -15 -9z"/>
<path d="M361 224 c13 -16 49 -19 49 -5 0 6 -5 13 -12 17 -7 5 -8 3 -3 -6 6
-10 4 -11 -6 -4 -8 4 -20 9 -27 10 -10 2 -11 -1 -1 -12z"/>
<path d="M531 224 c0 -11 3 -14 6 -6 3 7 2 16 -1 19 -3 4 -6 -2 -5 -13z"/>
</g>
</svg>
