<?xml version="1.0" standalone="no"?>
<!DOCTYPE svg PUBLIC "-//W3C//DTD SVG 20010904//EN"
 "http://www.w3.org/TR/2001/REC-SVG-20010904/DTD/svg10.dtd">
<svg version="1.0" xmlns="http://www.w3.org/2000/svg"
 width="102.000000pt" height="102.000000pt" viewBox="0 0 102.000000 102.000000"
 preserveAspectRatio="xMidYMid meet">

<g transform="translate(0.000000,102.000000) scale(0.100000,-0.100000)"
fill="#000000" stroke="none">
<path d="M270 841 c0 -11 28 -23 60 -25 18 -1 26 4 26 17 0 13 -9 17 -43 17
-24 0 -43 -4 -43 -9z"/>
<path d="M750 795 c15 -19 21 -19 46 0 18 13 16 14 -20 15 -33 0 -37 -2 -26
-15z"/>
<path d="M480 696 c0 -9 7 -16 16 -16 17 0 14 22 -4 28 -7 2 -12 -3 -12 -12z"/>
<path d="M556 703 c-11 -11 -6 -23 9 -23 8 0 15 4 15 9 0 13 -16 22 -24 14z"/>
<path d="M503 643 c-10 -10 -14 -15 -9 -10 14 10 54 9 61 -3 3 -5 12 -10 18
-10 13 1 -30 40 -43 40 -4 0 -16 -8 -27 -17z"/>
<path d="M747 523 c-4 -3 -85 -5 -179 -4 -172 1 -228 -5 -235 -26 -7 -20 39
-27 52 -9 18 24 66 21 72 -4 5 -19 6 -19 19 -3 10 15 16 16 32 6 11 -6 23 -9
26 -5 11 11 45 12 51 1 5 -7 12 -6 22 3 12 10 18 8 33 -12 l18 -24 -5 27 c-4
19 -1 27 9 27 11 0 14 -7 10 -25 -4 -24 7 -31 40 -26 4 0 4 -7 1 -16 -4 -11
-8 -13 -11 -5 -2 7 -8 12 -13 12 -4 0 -6 -7 -3 -15 4 -8 12 -15 20 -15 13 0
19 18 15 48 -1 6 3 12 9 12 5 0 10 8 10 18 0 10 5 23 12 30 7 7 10 12 7 12 -3
0 -9 -3 -12 -7z"/>
<path d="M410 471 c0 -12 6 -21 16 -21 9 0 14 7 12 17 -5 25 -28 28 -28 4z"/>
<path d="M430 420 c0 -5 5 -10 11 -10 5 0 7 5 4 10 -3 6 -8 10 -11 10 -2 0 -4
-4 -4 -10z"/>
<path d="M550 426 c0 -2 7 -7 16 -10 8 -3 12 -2 9 4 -6 10 -25 14 -25 6z"/>
<path d="M635 408 c1 -12 6 -23 12 -25 7 -3 9 4 6 17 -4 16 -2 19 13 14 16 -5
16 -4 4 5 -24 17 -37 13 -35 -11z"/>
<path d="M508 193 c6 -2 18 -2 25 0 6 3 1 5 -13 5 -14 0 -19 -2 -12 -5z"/>
<path d="M528 150 c-147 -4 -186 -8 -179 -18 5 -8 51 -14 147 -19 159 -7 209
-1 224 27 6 11 7 19 3 18 -4 -1 -92 -5 -195 -8z"/>
</g>
</svg>
