<?xml version="1.0" standalone="no"?>
<!DOCTYPE svg PUBLIC "-//W3C//DTD SVG 20010904//EN"
 "http://www.w3.org/TR/2001/REC-SVG-20010904/DTD/svg10.dtd">
<svg version="1.0" xmlns="http://www.w3.org/2000/svg"
 width="104.000000pt" height="104.000000pt" viewBox="0 0 104.000000 104.000000"
 preserveAspectRatio="xMidYMid meet">

<g transform="translate(0.000000,104.000000) scale(0.100000,-0.100000)"
fill="#000000" stroke="none">
<path d="M197 863 c-15 -27 -16 -63 -1 -77 20 -21 27 -20 49 4 15 17 16 24 5
50 -7 16 -17 30 -22 30 -6 0 -5 -7 2 -15 10 -13 9 -15 -10 -15 -16 0 -20 4
-16 15 6 15 1 21 -7 8z m33 -47 c0 -3 -4 -8 -10 -11 -5 -3 -10 -1 -10 4 0 6 5
11 10 11 6 0 10 -2 10 -4z"/>
<path d="M536 853 c-6 -14 -5 -15 5 -6 7 7 10 15 7 18 -3 3 -9 -2 -12 -12z"/>
<path d="M840 860 c0 -5 5 -10 10 -10 6 0 10 5 10 10 0 6 -4 10 -10 10 -5 0
-10 -4 -10 -10z"/>
<path d="M874 829 c-3 -6 -1 -16 5 -22 8 -8 11 -5 11 11 0 24 -5 28 -16 11z"/>
<path d="M690 806 c0 -2 8 -10 18 -17 15 -13 16 -12 3 4 -13 16 -21 21 -21 13z"/>
<path d="M730 779 c0 -2 14 -31 30 -63 64 -126 23 -272 -95 -342 -48 -27 -125
-44 -125 -27 0 6 19 15 43 21 167 43 238 261 120 373 -20 19 -33 28 -28 20 6
-10 2 -12 -16 -7 -21 6 -22 6 -6 -4 10 -7 21 -10 24 -7 2 3 13 -2 24 -11 15
-13 19 -30 19 -87 0 -109 -39 -180 -130 -234 -57 -34 -90 -26 -192 48 -18 14
-30 21 -26 16 4 -4 2 -15 -5 -24 -10 -14 -10 -14 4 -4 12 10 19 10 35 -2 18
-14 18 -14 -4 -10 -12 2 -20 0 -17 -6 4 -5 13 -9 21 -9 8 0 13 -4 10 -9 -5 -8
44 -33 92 -46 23 -7 29 -20 13 -29 -14 -9 -100 20 -144 50 -37 24 -40 24 -22
4 40 -44 146 -80 174 -57 12 10 14 9 9 -4 -6 -15 -2 -15 50 -2 109 29 177 96
212 212 16 54 17 66 5 105 -8 25 -19 55 -26 68 -12 24 -49 74 -49 67z"/>
<path d="M514 758 c-4 -7 -3 -8 4 -4 8 4 12 0 12 -12 0 -10 10 -23 23 -29 30
-14 58 -104 50 -161 -3 -24 -8 -44 -12 -46 -16 -10 -111 -14 -116 -5 -4 5 -10
7 -14 5 -7 -4 -9 6 -12 64 -1 17 -6 30 -11 30 -5 0 -7 -4 -3 -9 3 -5 1 -12 -5
-16 -6 -4 -8 -12 -4 -18 3 -7 -2 -3 -10 7 -12 15 -13 22 -4 27 8 5 4 7 -10 6
-21 -1 -23 -5 -18 -32 15 -73 120 -153 175 -134 72 25 131 119 131 209 l-1 55
-79 38 c-89 42 -86 41 -96 25z m136 -98 c0 -5 -4 -10 -10 -10 -5 0 -10 5 -10
10 0 6 5 10 10 10 6 0 10 -4 10 -10z"/>
<path d="M388 703 c-14 -4 -18 -14 -16 -51 1 -47 1 -47 5 -8 3 22 12 46 21 53
18 13 17 13 -10 6z"/>
<path d="M507 683 c-4 -3 -7 -16 -6 -27 0 -19 1 -19 11 4 l11 25 6 -25 c8 -27
41 -41 41 -17 0 30 -13 47 -34 47 -13 0 -26 -3 -29 -7z"/>
<path d="M254 609 c-3 -6 -1 -16 5 -22 9 -9 10 -7 5 7 -6 15 -4 17 6 11 9 -5
11 -4 6 3 -9 15 -13 15 -22 1z"/>
<path d="M526 593 c-3 -3 -6 -19 -6 -35 0 -37 22 -33 26 5 3 27 -7 42 -20 30z"/>
<path d="M880 530 c0 -5 5 -10 10 -10 6 0 10 5 10 10 0 6 -4 10 -10 10 -5 0
-10 -4 -10 -10z"/>
<path d="M192 478 c-15 -15 -16 -48 -2 -48 6 0 10 -22 10 -50 0 -27 5 -50 10
-50 6 0 10 18 10 40 0 23 7 51 15 64 27 40 -10 77 -43 44z m28 -8 c0 -5 -4
-10 -10 -10 -5 0 -10 5 -10 10 0 6 5 10 10 10 6 0 10 -4 10 -10z"/>
<path d="M310 440 c6 -11 13 -20 16 -20 2 0 0 9 -6 20 -6 11 -13 20 -16 20 -2
0 0 -9 6 -20z"/>
<path d="M870 376 c0 -9 5 -16 10 -16 6 0 10 4 10 9 0 6 -4 13 -10 16 -5 3
-10 -1 -10 -9z"/>
<path d="M240 266 c0 -2 6 -9 13 -15 10 -8 14 -7 14 4 0 8 -6 15 -14 15 -7 0
-13 -2 -13 -4z"/>
<path d="M280 254 c0 -8 5 -12 10 -9 6 4 8 11 5 16 -9 14 -15 11 -15 -7z"/>
<path d="M315 259 c-11 -16 -1 -19 13 -3 7 8 8 14 3 14 -5 0 -13 -5 -16 -11z"/>
<path d="M351 254 c0 -11 3 -14 6 -6 3 7 2 16 -1 19 -3 4 -6 -2 -5 -13z"/>
<path d="M371 254 c0 -11 3 -14 6 -6 3 7 2 16 -1 19 -3 4 -6 -2 -5 -13z"/>
<path d="M390 255 c0 -9 6 -12 15 -9 8 4 15 10 15 15 0 5 -7 9 -15 9 -8 0 -15
-7 -15 -15z"/>
<path d="M430 254 c0 -8 5 -12 10 -9 6 3 10 10 10 16 0 5 -4 9 -10 9 -5 0 -10
-7 -10 -16z"/>
<path d="M477 257 c-3 -8 1 -14 9 -14 8 0 14 6 14 14 0 17 -16 17 -23 0z"/>
<path d="M530 254 c0 -8 5 -12 10 -9 6 3 10 10 10 16 0 5 -4 9 -10 9 -5 0 -10
-7 -10 -16z"/>
<path d="M560 255 c0 -8 5 -15 10 -15 6 0 10 7 10 15 0 8 -4 15 -10 15 -5 0
-10 -7 -10 -15z"/>
<path d="M596 262 c-2 -4 4 -8 14 -8 10 0 16 4 14 8 -3 4 -9 8 -14 8 -5 0 -11
-4 -14 -8z"/>
<path d="M641 254 c0 -11 3 -14 6 -6 3 7 2 16 -1 19 -3 4 -6 -2 -5 -13z"/>
<path d="M671 254 c0 -11 3 -14 6 -6 3 7 2 16 -1 19 -3 4 -6 -2 -5 -13z"/>
<path d="M700 253 c0 -10 4 -14 8 -8 4 6 11 13 16 18 5 4 2 7 -7 7 -10 0 -17
-8 -17 -17z"/>
<path d="M740 255 c0 -8 2 -15 4 -15 2 0 6 7 10 15 3 8 1 15 -4 15 -6 0 -10
-7 -10 -15z"/>
<path d="M770 255 c0 -8 2 -15 4 -15 2 0 6 7 10 15 3 8 1 15 -4 15 -6 0 -10
-7 -10 -15z"/>
<path d="M801 254 c0 -11 3 -14 6 -6 3 7 2 16 -1 19 -3 4 -6 -2 -5 -13z"/>
<path d="M821 254 c0 -11 3 -14 6 -6 3 7 2 16 -1 19 -3 4 -6 -2 -5 -13z"/>
</g>
</svg>
