<?xml version="1.0" encoding="UTF-8"?>
<!DOCTYPE svg PUBLIC "-//W3C//DTD SVG 1.1//EN" "http://www.w3.org/Graphics/SVG/1.1/DTD/svg11.dtd">
<svg xmlns="http://www.w3.org/2000/svg" version="1.1" width="600px" height="600px" style="shape-rendering:geometricPrecision; text-rendering:geometricPrecision; image-rendering:optimizeQuality; fill-rule:evenodd; clip-rule:evenodd" xmlns:xlink="http://www.w3.org/1999/xlink">
<g><path style="opacity:1" fill="#fefeff" d="M -0.5,-0.5 C 199.5,-0.5 399.5,-0.5 599.5,-0.5C 599.5,199.5 599.5,399.5 599.5,599.5C 399.5,599.5 199.5,599.5 -0.5,599.5C -0.5,399.5 -0.5,199.5 -0.5,-0.5 Z"/></g>
<g><path style="opacity:1" fill="#0252ff" d="M 32.5,339.5 C 32.5557,334.269 31.889,329.269 30.5,324.5C 29.2141,308.498 29.2141,292.498 30.5,276.5C 31.889,271.731 32.5557,266.731 32.5,261.5C 47.2625,171.259 94.5958,104.092 174.5,60C 260.723,18.1809 346.39,19.5142 431.5,64C 518.603,116.332 564.603,193.499 569.5,295.5C 568.067,387.198 531.4,461.031 459.5,517C 379.056,572.468 292.723,583.801 200.5,551C 107.189,510.245 51.1887,439.745 32.5,339.5 Z"/></g>
<g><path style="opacity:1" fill="#275cff" d="M 366.5,121.5 C 324.805,106.931 282.805,105.931 240.5,118.5C 241.848,116.52 243.848,115.353 246.5,115C 286.254,104.049 325.587,105.383 364.5,119C 365.756,119.417 366.423,120.25 366.5,121.5 Z"/></g>
<g><path style="opacity:1" fill="#fefeff" d="M 366.5,121.5 C 433.034,149.193 473.034,198.526 486.5,269.5C 486.669,274.181 487.002,278.848 487.5,283.5C 455.833,283.5 424.167,283.5 392.5,283.5C 386.436,251.859 369.102,228.692 340.5,214C 290.118,194.463 249.284,206.63 218,250.5C 197.836,288.556 200.502,324.89 226,359.5C 257.416,393.786 294.916,402.619 338.5,386C 368.042,371.297 386.042,347.797 392.5,315.5C 424.5,315.5 456.5,315.5 488.5,315.5C 487.243,327.302 485.243,338.969 482.5,350.5C 479.503,359.518 476.17,368.518 472.5,377.5C 439.402,444.583 385.402,481.75 310.5,489C 244.219,491.436 190.385,466.936 149,415.5C 143.244,407.262 137.744,398.928 132.5,390.5C 120.131,365.408 112.465,339.075 109.5,311.5C 108.214,232.048 141.548,172.215 209.5,132C 219.626,126.935 229.959,122.435 240.5,118.5C 282.805,105.931 324.805,106.931 366.5,121.5 Z"/></g>
<g><path style="opacity:1" fill="#688fff" d="M 32.5,261.5 C 32.5557,266.731 31.889,271.731 30.5,276.5C 30.4443,271.269 31.111,266.269 32.5,261.5 Z"/></g>
<g><path style="opacity:1" fill="#b7caff" d="M 486.5,269.5 C 488.328,274.103 488.661,278.769 487.5,283.5C 487.002,278.848 486.669,274.181 486.5,269.5 Z"/></g>
<g><path style="opacity:1" fill="#3563ff" d="M 109.5,311.5 C 112.465,339.075 120.131,365.408 132.5,390.5C 131.504,390.586 130.671,390.252 130,389.5C 116.561,365.07 109.728,339.07 109.5,311.5 Z"/></g>
<g><path style="opacity:1" fill="#b5c7ff" d="M 30.5,324.5 C 31.889,329.269 32.5557,334.269 32.5,339.5C 31.111,334.731 30.4443,329.731 30.5,324.5 Z"/></g>
<g><path style="opacity:1" fill="#3563ff" d="M 482.5,350.5 C 482.007,359.318 479.673,367.651 475.5,375.5C 474.643,376.425 473.643,377.092 472.5,377.5C 476.17,368.518 479.503,359.518 482.5,350.5 Z"/></g>
</svg>
