<?xml version="1.0" encoding="UTF-8"?>
<!DOCTYPE svg PUBLIC "-//W3C//DTD SVG 1.1//EN" "http://www.w3.org/Graphics/SVG/1.1/DTD/svg11.dtd">
<svg xmlns="http://www.w3.org/2000/svg" version="1.1" width="600px" height="600px" style="shape-rendering:geometricPrecision; text-rendering:geometricPrecision; image-rendering:optimizeQuality; fill-rule:evenodd; clip-rule:evenodd" xmlns:xlink="http://www.w3.org/1999/xlink">
<g><path style="opacity:1" fill="#fefefe" d="M -0.5,-0.5 C 199.5,-0.5 399.5,-0.5 599.5,-0.5C 599.5,199.5 599.5,399.5 599.5,599.5C 399.5,599.5 199.5,599.5 -0.5,599.5C -0.5,399.5 -0.5,199.5 -0.5,-0.5 Z"/></g>
<g><path style="opacity:1" fill="#7f818a" d="M 375.5,226.5 C 375.833,241.515 375.499,256.515 374.5,271.5C 373.893,271.376 373.56,271.043 373.5,270.5C 374.167,255.833 374.833,241.167 375.5,226.5 Z"/></g>
<g><path style="opacity:1" fill="#393d4b" d="M 375.5,226.5 C 377.5,226.5 379.5,226.5 381.5,226.5C 381.5,263.5 381.5,300.5 381.5,337.5C 379.833,337.5 378.167,337.5 376.5,337.5C 376.76,333.652 376.094,329.985 374.5,326.5C 369.997,332.59 363.997,336.423 356.5,338C 334.191,341.265 321.358,331.765 318,309.5C 315.577,295.243 317.91,281.91 325,269.5C 328.486,264.85 332.986,261.85 338.5,260.5C 343.797,259.725 349.13,259.392 354.5,259.5C 362.793,259.812 369.126,263.479 373.5,270.5C 373.56,271.043 373.893,271.376 374.5,271.5C 375.499,256.515 375.833,241.515 375.5,226.5 Z"/></g>
<g><path style="opacity:1" fill="#363a48" d="M 41.5,230.5 C 46.5,230.5 51.5,230.5 56.5,230.5C 56.5,239.167 56.5,247.833 56.5,256.5C 47.5,256.5 38.5,256.5 29.5,256.5C 27.1876,244.719 31.1876,236.052 41.5,230.5 Z"/></g>
<g><path style="opacity:1" fill="#333745" d="M 140.5,243.5 C 140.5,261.833 140.5,280.167 140.5,298.5C 117.833,298.5 95.1667,298.5 72.5,298.5C 72.5,275.833 72.5,253.167 72.5,230.5C 90.8364,230.333 109.17,230.5 127.5,231C 134.314,232.649 138.648,236.815 140.5,243.5 Z"/></g>
<g><path style="opacity:1" fill="#333745" d="M 199.5,234.5 C 199.5,266.5 199.5,298.5 199.5,330.5C 215.658,331.496 231.991,331.83 248.5,331.5C 248.5,333.167 248.5,334.833 248.5,336.5C 230.167,336.5 211.833,336.5 193.5,336.5C 193.5,302.5 193.5,268.5 193.5,234.5C 195.5,234.5 197.5,234.5 199.5,234.5 Z"/></g>
<g><path style="opacity:1" fill="#7b7d86" d="M 354.5,259.5 C 349.13,259.392 343.797,259.725 338.5,260.5C 341.356,258.994 344.523,258.328 348,258.5C 350.361,258.504 352.527,258.837 354.5,259.5 Z"/></g>
<g><path style="opacity:1" fill="#777a84" d="M 564.5,259.5 C 559.463,259.413 554.463,259.746 549.5,260.5C 552.186,259.009 555.186,258.343 558.5,258.5C 560.696,258.505 562.696,258.838 564.5,259.5 Z"/></g>
<g><path style="opacity:1" fill="#3a3d4b" d="M 309.5,277.5 C 309.41,280.152 310.076,282.485 311.5,284.5C 311.5,285.167 311.5,285.833 311.5,286.5C 311.5,290.833 311.5,295.167 311.5,299.5C 292.992,299.17 274.659,299.503 256.5,300.5C 257.731,325.469 270.731,335.636 295.5,331C 299.518,329.829 303.518,328.663 307.5,327.5C 308.461,329.265 308.795,331.265 308.5,333.5C 297.78,338.29 286.446,339.79 274.5,338C 262.667,334.167 254.833,326.333 251,314.5C 249.509,304.879 249.176,295.212 250,285.5C 258.837,259.497 275.67,252.331 300.5,264C 304.637,267.784 307.637,272.284 309.5,277.5 Z"/></g>
<g><path style="opacity:1" fill="#3c404e" d="M 449.5,265.5 C 446.428,265.183 443.428,265.516 440.5,266.5C 440.624,267.107 440.957,267.44 441.5,267.5C 450.01,279.442 449.343,290.942 439.5,302C 430.688,307.619 421.021,309.953 410.5,309C 406.743,311.393 404.743,314.727 404.5,319C 403.808,322.532 405.141,324.865 408.5,326C 417.167,326.333 425.833,326.667 434.5,327C 455.915,331.666 461.081,343.5 450,362.5C 437.517,371.209 423.683,374.376 408.5,372C 392.246,369.337 385.413,359.837 388,343.5C 391.658,336.911 397.158,332.577 404.5,330.5C 396.853,325.279 395.686,318.945 401,311.5C 402.78,309.707 404.613,308.04 406.5,306.5C 395.832,299.354 391.665,289.354 394,276.5C 396.833,267.667 402.667,261.833 411.5,259C 426.492,259.055 441.492,259.222 456.5,259.5C 456.5,261.5 456.5,263.5 456.5,265.5C 454.167,265.5 451.833,265.5 449.5,265.5 Z"/></g>
<g><path style="opacity:1" fill="#3a3d4b" d="M 518.5,299.5 C 500.167,299.5 481.833,299.5 463.5,299.5C 463.198,302.059 463.532,304.393 464.5,306.5C 467.951,327.583 480.284,335.75 501.5,331C 506.506,329.828 511.506,328.661 516.5,327.5C 516.756,329.792 516.423,331.959 515.5,334C 504.544,338.184 493.21,339.517 481.5,338C 469.502,334.906 461.668,327.406 458,315.5C 455.458,302.28 456.125,289.28 460,276.5C 472.351,256.912 488.517,253.079 508.5,265C 517.57,274.721 520.903,286.221 518.5,299.5 Z"/></g>
<g><path style="opacity:1" fill="#393d4b" d="M 564.5,259.5 C 565.833,259.5 567.167,259.5 568.5,259.5C 568.5,261.833 568.5,264.167 568.5,266.5C 553.509,262.205 543.176,267.205 537.5,281.5C 536.076,283.515 535.41,285.848 535.5,288.5C 535.5,304.833 535.5,321.167 535.5,337.5C 533.167,337.5 530.833,337.5 528.5,337.5C 528.5,311.833 528.5,286.167 528.5,260.5C 530.167,260.5 531.833,260.5 533.5,260.5C 533.232,262.099 533.566,263.432 534.5,264.5C 534.183,267.572 534.516,270.572 535.5,273.5C 538.273,267.058 542.94,262.725 549.5,260.5C 554.463,259.746 559.463,259.413 564.5,259.5 Z"/></g>
<g><path style="opacity:1" fill="#91939b" d="M 534.5,264.5 C 533.566,263.432 533.232,262.099 533.5,260.5C 531.833,260.5 530.167,260.5 528.5,260.5C 528.5,286.167 528.5,311.833 528.5,337.5C 527.502,311.672 527.169,285.672 527.5,259.5C 529.833,259.5 532.167,259.5 534.5,259.5C 534.5,261.167 534.5,262.833 534.5,264.5 Z"/></g>
<g><path style="opacity:1" fill="#fbfbfb" d="M 411.5,264.5 C 435.637,262.137 444.137,272.47 437,295.5C 428.307,304.067 418.474,305.567 407.5,300C 404.567,297.736 402.4,294.902 401,291.5C 397.423,279.487 400.923,270.487 411.5,264.5 Z"/></g>
<g><path style="opacity:1" fill="#9fa1a8" d="M 493.5,265.5 C 489.131,265.467 484.798,265.8 480.5,266.5C 482.848,265.048 485.514,264.382 488.5,264.5C 490.369,264.507 492.036,264.84 493.5,265.5 Z"/></g>
<g><path style="opacity:1" fill="#fcfcfc" d="M 303.5,284.5 C 303.5,287.167 303.5,289.833 303.5,292.5C 288.167,292.5 272.833,292.5 257.5,292.5C 257.5,291.167 257.5,289.833 257.5,288.5C 258.529,277.943 263.862,270.443 273.5,266C 289.761,262.287 299.761,268.454 303.5,284.5 Z"/></g>
<g><path style="opacity:1" fill="#fcfcfd" d="M 340.5,265.5 C 365.19,262.521 376.523,273.521 374.5,298.5C 376.055,326.458 363.388,336.958 336.5,330C 330.024,325.561 326.19,319.395 325,311.5C 324.333,302.833 324.333,294.167 325,285.5C 327.082,276.286 332.249,269.62 340.5,265.5 Z"/></g>
<g><path style="opacity:1" fill="#a0a2a9" d="M 449.5,265.5 C 446.833,266.167 444.167,266.833 441.5,267.5C 440.957,267.44 440.624,267.107 440.5,266.5C 443.428,265.516 446.428,265.183 449.5,265.5 Z"/></g>
<g><path style="opacity:1" fill="#fcfcfc" d="M 493.5,265.5 C 504.159,267.831 509.825,274.498 510.5,285.5C 510.5,287.833 510.5,290.167 510.5,292.5C 495.167,292.5 479.833,292.5 464.5,292.5C 464.5,291.5 464.5,290.5 464.5,289.5C 465.229,278.466 470.562,270.799 480.5,266.5C 484.798,265.8 489.131,265.467 493.5,265.5 Z"/></g>
<g><path style="opacity:1" fill="#353947" d="M 29.5,273.5 C 38.5,273.5 47.5,273.5 56.5,273.5C 56.5,282.167 56.5,290.833 56.5,299.5C 47.5,299.5 38.5,299.5 29.5,299.5C 29.5,290.833 29.5,282.167 29.5,273.5 Z"/></g>
<g><path style="opacity:1" fill="#7b7e87" d="M 309.5,277.5 C 310.924,279.515 311.59,281.848 311.5,284.5C 310.076,282.485 309.41,280.152 309.5,277.5 Z"/></g>
<g><path style="opacity:1" fill="#b3b4ba" d="M 537.5,281.5 C 537.59,284.152 536.924,286.485 535.5,288.5C 535.41,285.848 536.076,283.515 537.5,281.5 Z"/></g>
<g><path style="opacity:1" fill="#cbccd0" d="M 303.5,284.5 C 304.477,287.287 304.81,290.287 304.5,293.5C 288.5,293.5 272.5,293.5 256.5,293.5C 256.216,291.585 256.549,289.919 257.5,288.5C 257.5,289.833 257.5,291.167 257.5,292.5C 272.833,292.5 288.167,292.5 303.5,292.5C 303.5,289.833 303.5,287.167 303.5,284.5 Z"/></g>
<g><path style="opacity:1" fill="#cecfd3" d="M 510.5,285.5 C 511.473,287.948 511.806,290.615 511.5,293.5C 495.5,293.5 479.5,293.5 463.5,293.5C 463.232,291.901 463.566,290.568 464.5,289.5C 464.5,290.5 464.5,291.5 464.5,292.5C 479.833,292.5 495.167,292.5 510.5,292.5C 510.5,290.167 510.5,287.833 510.5,285.5 Z"/></g>
<g><path style="opacity:1" fill="#545763" d="M 140.5,243.5 C 141.497,261.993 141.83,280.659 141.5,299.5C 118.327,299.831 95.3273,299.498 72.5,298.5C 95.1667,298.5 117.833,298.5 140.5,298.5C 140.5,280.167 140.5,261.833 140.5,243.5 Z"/></g>
<g><path style="opacity:1" fill="#d7d8db" d="M 311.5,286.5 C 312.486,290.97 312.819,295.637 312.5,300.5C 293.833,300.5 275.167,300.5 256.5,300.5C 274.659,299.503 292.992,299.17 311.5,299.5C 311.5,295.167 311.5,290.833 311.5,286.5 Z"/></g>
<g><path style="opacity:1" fill="#e3e4e6" d="M 518.5,299.5 C 500.674,300.497 482.674,300.83 464.5,300.5C 464.5,302.5 464.5,304.5 464.5,306.5C 463.532,304.393 463.198,302.059 463.5,299.5C 481.833,299.5 500.167,299.5 518.5,299.5 Z"/></g>
<g><path style="opacity:1" fill="#343846" d="M 29.5,316.5 C 38.1667,316.5 46.8333,316.5 55.5,316.5C 55.5,324.833 55.5,333.167 55.5,341.5C 51.1667,341.5 46.8333,341.5 42.5,341.5C 36.1014,339.411 31.9347,335.078 30,328.5C 29.5012,324.514 29.3345,320.514 29.5,316.5 Z"/></g>
<g><path style="opacity:1" fill="#666974" d="M 29.5,316.5 C 38.3178,315.507 47.3178,315.173 56.5,315.5C 56.5,324.5 56.5,333.5 56.5,342.5C 51.6367,342.819 46.97,342.486 42.5,341.5C 46.8333,341.5 51.1667,341.5 55.5,341.5C 55.5,333.167 55.5,324.833 55.5,316.5C 46.8333,316.5 38.1667,316.5 29.5,316.5 Z"/></g>
<g><path style="opacity:1" fill="#363a47" d="M 72.5,315.5 C 81.1667,315.5 89.8333,315.5 98.5,315.5C 98.5,324.5 98.5,333.5 98.5,342.5C 89.8333,342.5 81.1667,342.5 72.5,342.5C 72.5,333.5 72.5,324.5 72.5,315.5 Z"/></g>
<g><path style="opacity:1" fill="#646771" d="M 140.5,328.5 C 140.5,324.5 140.5,320.5 140.5,316.5C 132.167,316.5 123.833,316.5 115.5,316.5C 115.5,324.833 115.5,333.167 115.5,341.5C 119.167,341.5 122.833,341.5 126.5,341.5C 122.702,342.483 118.702,342.817 114.5,342.5C 114.5,333.5 114.5,324.5 114.5,315.5C 123.5,315.5 132.5,315.5 141.5,315.5C 141.818,320.032 141.485,324.366 140.5,328.5 Z"/></g>
<g><path style="opacity:1" fill="#333745" d="M 140.5,328.5 C 138.691,335.978 134.024,340.311 126.5,341.5C 122.833,341.5 119.167,341.5 115.5,341.5C 115.5,333.167 115.5,324.833 115.5,316.5C 123.833,316.5 132.167,316.5 140.5,316.5C 140.5,320.5 140.5,324.5 140.5,328.5 Z"/></g>
<g><path style="opacity:1" fill="#b7b8bd" d="M 307.5,327.5 C 307.56,326.957 307.893,326.624 308.5,326.5C 309.797,328.973 309.797,331.307 308.5,333.5C 308.795,331.265 308.461,329.265 307.5,327.5 Z"/></g>
<g><path style="opacity:1" fill="#fafafb" d="M 406.5,333.5 C 416.172,333.334 425.839,333.5 435.5,334C 447.479,336.785 450.979,343.952 446,355.5C 441.474,361.685 435.308,365.185 427.5,366C 418.184,367.372 409.184,366.372 400.5,363C 392.076,355.279 391.41,346.946 398.5,338C 401.191,336.395 403.858,334.895 406.5,333.5 Z"/></g>
<g><path style="opacity:1" fill="#545763" d="M 199.5,234.5 C 197.5,234.5 195.5,234.5 193.5,234.5C 193.5,268.5 193.5,302.5 193.5,336.5C 211.833,336.5 230.167,336.5 248.5,336.5C 248.5,334.833 248.5,333.167 248.5,331.5C 231.991,331.83 215.658,331.496 199.5,330.5C 216.167,330.5 232.833,330.5 249.5,330.5C 249.5,332.833 249.5,335.167 249.5,337.5C 230.5,337.5 211.5,337.5 192.5,337.5C 192.5,302.833 192.5,268.167 192.5,233.5C 195.059,233.198 197.393,233.532 199.5,234.5 Z"/></g>
</svg>
