<?xml version="1.0" encoding="UTF-8"?>
<!DOCTYPE svg PUBLIC "-//W3C//DTD SVG 1.1//EN" "http://www.w3.org/Graphics/SVG/1.1/DTD/svg11.dtd">
<svg xmlns="http://www.w3.org/2000/svg" version="1.1" width="32px" height="32px" style="shape-rendering:geometricPrecision; text-rendering:geometricPrecision; image-rendering:optimizeQuality; fill-rule:evenodd; clip-rule:evenodd" xmlns:xlink="http://www.w3.org/1999/xlink">
<g><path style="opacity:0.796" fill="#8750cf" d="M -0.5,0.5 C -0.5,0.166667 -0.5,-0.166667 -0.5,-0.5C 3.16667,-0.5 6.83333,-0.5 10.5,-0.5C 11.5,0.833333 12.5,0.833333 13.5,-0.5C 14.1667,-0.5 14.8333,-0.5 15.5,-0.5C 15.8333,0.166667 16.1667,0.833333 16.5,1.5C 15.8333,1.5 15.5,1.83333 15.5,2.5C 14.8333,2.5 14.1667,2.5 13.5,2.5C 8.96353,1.18924 4.29686,0.522571 -0.5,0.5 Z"/></g>
<g><path style="opacity:0.984" fill="#b4479b" d="M -0.5,0.5 C 4.29686,0.522571 8.96353,1.18924 13.5,2.5C 14.1667,3.5 14.8333,4.5 15.5,5.5C 13.1667,4.83333 10.8333,4.16667 8.5,3.5C 5.60853,2.59748 2.60853,2.26414 -0.5,2.5C -0.5,1.83333 -0.5,1.16667 -0.5,0.5 Z"/></g>
<g><path style="opacity:0.863" fill="#a64fca" d="M 16.5,1.5 C 17.4916,1.32842 18.1583,1.66175 18.5,2.5C 17.1667,2.83333 17.1667,3.16667 18.5,3.5C 18.5,4.16667 18.8333,4.5 19.5,4.5C 19.7329,6.06181 20.3995,7.39514 21.5,8.5C 19.5,7.5 17.5,6.5 15.5,5.5C 14.8333,4.5 14.1667,3.5 13.5,2.5C 14.1667,2.5 14.8333,2.5 15.5,2.5C 16.1667,2.5 16.5,2.16667 16.5,1.5 Z"/></g>
<g><path style="opacity:1" fill="#e03a4c" d="M -0.5,2.5 C 2.60853,2.26414 5.60853,2.59748 8.5,3.5C 8.83333,4.16667 9.16667,4.83333 9.5,5.5C 6.21389,4.79287 2.88055,4.45954 -0.5,4.5C -0.5,3.83333 -0.5,3.16667 -0.5,2.5 Z"/></g>
<g><path style="opacity:1" fill="#d83c5a" d="M 8.5,3.5 C 10.8333,4.16667 13.1667,4.83333 15.5,5.5C 16.1667,6.5 16.8333,7.5 17.5,8.5C 15.6854,7.37023 13.6854,6.70356 11.5,6.5C 11.1583,5.66175 10.4916,5.32842 9.5,5.5C 9.16667,4.83333 8.83333,4.16667 8.5,3.5 Z"/></g>
<g><path style="opacity:1" fill="#f93419" d="M -0.5,4.5 C 2.88055,4.45954 6.21389,4.79287 9.5,5.5C 10.4916,5.32842 11.1583,5.66175 11.5,6.5C 11.8333,7.16667 12.1667,7.83333 12.5,8.5C 8.32631,6.93602 3.99297,6.26935 -0.5,6.5C -0.5,5.83333 -0.5,5.16667 -0.5,4.5 Z"/></g>
<g><path style="opacity:1" fill="#ffaa00" d="M -0.5,6.5 C 3.99297,6.26935 8.32631,6.93602 12.5,8.5C 13.1667,8.5 13.5,8.83333 13.5,9.5C 13.5,10.1667 13.5,10.8333 13.5,11.5C 12.8333,11.5 12.1667,11.5 11.5,11.5C 7.98162,9.0339 3.98162,8.0339 -0.5,8.5C -0.5,7.83333 -0.5,7.16667 -0.5,6.5 Z"/></g>
<g><path style="opacity:1" fill="#f72e1d" d="M 11.5,6.5 C 13.6854,6.70356 15.6854,7.37023 17.5,8.5C 19.5,10.8333 21.5,13.1667 23.5,15.5C 24.1495,17.4352 24.4828,19.4352 24.5,21.5C 23.2632,20.0351 22.2632,18.3684 21.5,16.5C 19.4509,13.4503 16.7843,11.117 13.5,9.5C 13.5,8.83333 13.1667,8.5 12.5,8.5C 12.1667,7.83333 11.8333,7.16667 11.5,6.5 Z"/></g>
<g><path style="opacity:1" fill="#cc3f6f" d="M 15.5,5.5 C 17.5,6.5 19.5,7.5 21.5,8.5C 23.2516,10.2459 24.5849,12.2459 25.5,14.5C 25.5,15.1667 25.5,15.8333 25.5,16.5C 24.8333,16.1667 24.1667,15.8333 23.5,15.5C 21.5,13.1667 19.5,10.8333 17.5,8.5C 16.8333,7.5 16.1667,6.5 15.5,5.5 Z"/></g>
<g><path style="opacity:1" fill="#ffcb00" d="M -0.5,8.5 C 3.98162,8.0339 7.98162,9.0339 11.5,11.5C 10.8333,11.5 10.1667,11.5 9.5,11.5C 6.19327,10.9492 2.85994,10.6159 -0.5,10.5C -0.5,9.83333 -0.5,9.16667 -0.5,8.5 Z"/></g>
<g><path style="opacity:0.878" fill="#954fcd" d="M 18.5,3.5 C 18.5,3.16667 18.5,2.83333 18.5,2.5C 20.7453,2.5412 21.4119,3.37453 20.5,5C 23.3993,7.72906 26.066,10.5624 28.5,13.5C 28.5,14.1667 28.5,14.8333 28.5,15.5C 27.609,14.8902 26.609,14.5569 25.5,14.5C 24.5849,12.2459 23.2516,10.2459 21.5,8.5C 20.3995,7.39514 19.7329,6.06181 19.5,4.5C 18.8333,4.5 18.5,4.16667 18.5,3.5 Z"/></g>
<g><path style="opacity:1" fill="#fae800" d="M -0.5,10.5 C 2.85994,10.6159 6.19327,10.9492 9.5,11.5C 10.1667,12.5 10.8333,13.5 11.5,14.5C 10.8333,14.5 10.1667,14.5 9.5,14.5C 6.49284,12.8255 3.1595,12.1588 -0.5,12.5C -0.5,11.8333 -0.5,11.1667 -0.5,10.5 Z"/></g>
<g><path style="opacity:1" fill="#ffa400" d="M 13.5,9.5 C 16.7843,11.117 19.4509,13.4503 21.5,16.5C 20.8333,16.8333 20.1667,17.1667 19.5,17.5C 17.8333,15.1667 15.8333,13.1667 13.5,11.5C 13.5,10.8333 13.5,10.1667 13.5,9.5 Z"/></g>
<g><path style="opacity:0.012" fill="#a955aa" d="M 28.5,12.5 C 29.8333,13.1667 29.8333,13.1667 28.5,12.5 Z"/></g>
<g><path style="opacity:1" fill="#25da3e" d="M -0.5,12.5 C 3.1595,12.1588 6.49284,12.8255 9.5,14.5C 6.16667,14.5 2.83333,14.5 -0.5,14.5C -0.5,13.8333 -0.5,13.1667 -0.5,12.5 Z"/></g>
<g><path style="opacity:1" fill="#fcdc00" d="M 9.5,11.5 C 10.1667,11.5 10.8333,11.5 11.5,11.5C 14.1413,13.8044 16.808,16.1377 19.5,18.5C 19.5,19.1667 19.5,19.8333 19.5,20.5C 18.3951,19.3995 17.0618,18.7329 15.5,18.5C 13.8333,17.5 12.5,16.1667 11.5,14.5C 10.8333,13.5 10.1667,12.5 9.5,11.5 Z"/></g>
<g><path style="opacity:1" fill="#ffc000" d="M 11.5,11.5 C 12.1667,11.5 12.8333,11.5 13.5,11.5C 15.8333,13.1667 17.8333,15.1667 19.5,17.5C 19.5,17.8333 19.5,18.1667 19.5,18.5C 16.808,16.1377 14.1413,13.8044 11.5,11.5 Z"/></g>
<g><path style="opacity:1" fill="#04d263" d="M -0.5,15.5 C -0.5,15.1667 -0.5,14.8333 -0.5,14.5C 2.83333,14.5 6.16667,14.5 9.5,14.5C 9.5,15.1667 9.5,15.8333 9.5,16.5C 9.16667,16.5 8.83333,16.5 8.5,16.5C 5.60853,15.5975 2.60853,15.2641 -0.5,15.5 Z"/></g>
<g><path style="opacity:0.995" fill="#03c69c" d="M -0.5,16.5 C -0.5,16.1667 -0.5,15.8333 -0.5,15.5C 2.60853,15.2641 5.60853,15.5975 8.5,16.5C 8.83333,17.1667 9.16667,17.8333 9.5,18.5C 8.83333,18.5 8.16667,18.5 7.5,18.5C 5.16175,16.9605 2.49508,16.2938 -0.5,16.5 Z"/></g>
<g><path style="opacity:1" fill="#19d844" d="M 9.5,14.5 C 10.1667,14.5 10.8333,14.5 11.5,14.5C 12.5,16.1667 13.8333,17.5 15.5,18.5C 15.5,18.8333 15.5,19.1667 15.5,19.5C 14.8333,19.5 14.1667,19.5 13.5,19.5C 12.1667,18.5 10.8333,17.5 9.5,16.5C 9.5,15.8333 9.5,15.1667 9.5,14.5 Z"/></g>
<g><path style="opacity:1" fill="#ffa400" d="M 21.5,16.5 C 22.2632,18.3684 23.2632,20.0351 24.5,21.5C 25.3242,24.7644 25.6576,28.0977 25.5,31.5C 25.1667,31.5 24.8333,31.5 24.5,31.5C 24.6621,29.4727 24.4955,27.4727 24,25.5C 23.6174,24.944 23.1174,24.6107 22.5,24.5C 22.3465,22.0301 21.3465,20.0301 19.5,18.5C 19.5,18.1667 19.5,17.8333 19.5,17.5C 20.1667,17.1667 20.8333,16.8333 21.5,16.5 Z"/></g>
<g><path style="opacity:0.012" fill="#9d659c" d="M 31.5,15.5 C 31.5,16.1667 31.5,16.8333 31.5,17.5C 31.1667,17.5 30.8333,17.5 30.5,17.5C 30.3284,16.5084 30.6618,15.8417 31.5,15.5 Z"/></g>
<g><path style="opacity:1" fill="#04c0cf" d="M -0.5,16.5 C 2.49508,16.2938 5.16175,16.9605 7.5,18.5C 5.16667,18.5 2.83333,18.5 0.5,18.5C 0.166667,18.5 -0.166667,18.5 -0.5,18.5C -0.5,17.8333 -0.5,17.1667 -0.5,16.5 Z"/></g>
<g><path style="opacity:0.992" fill="#c5427b" d="M 25.5,16.5 C 27.7964,17.733 29.1298,19.733 29.5,22.5C 29.5,25.5 29.5,28.5 29.5,31.5C 29.1667,31.5 28.8333,31.5 28.5,31.5C 29.0205,26.1538 28.0205,21.1538 25.5,16.5 Z"/></g>
<g><path style="opacity:0.343" fill="#16b5c9" d="M 0.5,18.5 C 2.83333,18.5 5.16667,18.5 7.5,18.5C 8.16667,18.5 8.83333,18.5 9.5,18.5C 9.83333,19.5 10.5,20.1667 11.5,20.5C 11.5,21.1667 11.5,21.8333 11.5,22.5C 9.94678,20.615 7.94678,19.615 5.5,19.5C 4.16667,19.8333 4.16667,20.1667 5.5,20.5C 5.5,20.8333 5.5,21.1667 5.5,21.5C 3.80081,21.6602 2.13414,21.4935 0.5,21C 1.5,20.6667 2.5,20.3333 3.5,20C 2.26253,19.7679 1.26253,19.2679 0.5,18.5 Z"/></g>
<g><path style="opacity:0.992" fill="#a24cb8" d="M 25.5,14.5 C 26.609,14.5569 27.609,14.8902 28.5,15.5C 29.1667,16.1667 29.8333,16.8333 30.5,17.5C 30.2627,18.791 30.596,19.791 31.5,20.5C 31.5,22.1667 31.5,23.8333 31.5,25.5C 30.8333,24.5 30.1667,23.5 29.5,22.5C 29.1298,19.733 27.7964,17.733 25.5,16.5C 25.5,15.8333 25.5,15.1667 25.5,14.5 Z"/></g>
<g><path style="opacity:1" fill="#06cb86" d="M 8.5,16.5 C 8.83333,16.5 9.16667,16.5 9.5,16.5C 10.8333,17.5 12.1667,18.5 13.5,19.5C 14.1098,20.391 14.4431,21.391 14.5,22.5C 13.5,21.8333 12.5,21.1667 11.5,20.5C 10.5,20.1667 9.83333,19.5 9.5,18.5C 9.16667,17.8333 8.83333,17.1667 8.5,16.5 Z"/></g>
<g><path style="opacity:1" fill="#1bd947" d="M 13.5,19.5 C 14.1667,19.5 14.8333,19.5 15.5,19.5C 18.598,22.793 19.9313,26.793 19.5,31.5C 18.5,31.5 17.5,31.5 16.5,31.5C 16.6641,28.8127 16.4974,26.146 16,23.5C 15.6174,22.944 15.1174,22.6107 14.5,22.5C 14.4431,21.391 14.1098,20.391 13.5,19.5 Z"/></g>
<g><path style="opacity:1" fill="#fbe700" d="M 15.5,19.5 C 15.5,19.1667 15.5,18.8333 15.5,18.5C 17.0618,18.7329 18.3951,19.3995 19.5,20.5C 20.1143,24.1352 20.4476,27.8019 20.5,31.5C 20.1667,31.5 19.8333,31.5 19.5,31.5C 19.9313,26.793 18.598,22.793 15.5,19.5 Z"/></g>
<g><path style="opacity:1" fill="#e63741" d="M 23.5,15.5 C 24.1667,15.8333 24.8333,16.1667 25.5,16.5C 28.0205,21.1538 29.0205,26.1538 28.5,31.5C 28.1667,31.5 27.8333,31.5 27.5,31.5C 27.6633,29.1432 27.4966,26.8098 27,24.5C 26.6232,23.0577 25.7899,22.0577 24.5,21.5C 24.4828,19.4352 24.1495,17.4352 23.5,15.5 Z"/></g>
<g><path style="opacity:1" fill="#ffd000" d="M 19.5,18.5 C 21.3465,20.0301 22.3465,22.0301 22.5,24.5C 22.5,26.8333 22.5,29.1667 22.5,31.5C 21.8333,31.5 21.1667,31.5 20.5,31.5C 20.4476,27.8019 20.1143,24.1352 19.5,20.5C 19.5,19.8333 19.5,19.1667 19.5,18.5 Z"/></g>
<g><path style="opacity:0.004" fill="#13e9ff" d="M 9.5,23.5 C 9.5,24.1667 9.5,24.8333 9.5,25.5C 8.16667,24.8333 8.16667,24.1667 9.5,23.5 Z"/></g>
<g><path style="opacity:0.012" fill="#2288c5" d="M 9.5,25.5 C 9.83333,25.5 10.1667,25.5 10.5,25.5C 10.5,27.1667 10.5,28.8333 10.5,30.5C 9.54885,29.0813 9.21552,27.4147 9.5,25.5 Z"/></g>
<g><path style="opacity:0.312" fill="#05b6eb" d="M 5.5,19.5 C 7.94678,19.615 9.94678,20.615 11.5,22.5C 12.2653,25.0961 12.5987,27.7628 12.5,30.5C 12.1667,30.5 11.8333,30.5 11.5,30.5C 11.7845,28.5853 11.4511,26.9187 10.5,25.5C 10.6716,24.5084 10.3382,23.8417 9.5,23.5C 9.21719,22.7109 8.71719,22.0442 8,21.5C 7.02278,22.7736 6.18944,22.7736 5.5,21.5C 5.5,21.1667 5.5,20.8333 5.5,20.5C 5.5,20.1667 5.5,19.8333 5.5,19.5 Z"/></g>
<g><path style="opacity:1" fill="#ffb200" d="M 22.5,24.5 C 23.1174,24.6107 23.6174,24.944 24,25.5C 24.4955,27.4727 24.6621,29.4727 24.5,31.5C 23.8333,31.5 23.1667,31.5 22.5,31.5C 22.5,29.1667 22.5,26.8333 22.5,24.5 Z"/></g>
<g><path style="opacity:1" fill="#0ac4a4" d="M 11.5,20.5 C 12.5,21.1667 13.5,21.8333 14.5,22.5C 15.1174,22.6107 15.6174,22.944 16,23.5C 16.4974,26.146 16.6641,28.8127 16.5,31.5C 15.8333,31.5 15.1667,31.5 14.5,31.5C 14.8624,27.919 13.8624,24.919 11.5,22.5C 11.5,21.8333 11.5,21.1667 11.5,20.5 Z"/></g>
<g><path style="opacity:1" fill="#f52c23" d="M 24.5,21.5 C 25.7899,22.0577 26.6232,23.0577 27,24.5C 27.4966,26.8098 27.6633,29.1432 27.5,31.5C 26.8333,31.5 26.1667,31.5 25.5,31.5C 25.6576,28.0977 25.3242,24.7644 24.5,21.5 Z"/></g>
<g><path style="opacity:1" fill="#03badd" d="M 11.5,22.5 C 13.8624,24.919 14.8624,27.919 14.5,31.5C 13.8333,31.5 13.1667,31.5 12.5,31.5C 12.5,31.1667 12.5,30.8333 12.5,30.5C 12.5987,27.7628 12.2653,25.0961 11.5,22.5 Z"/></g>
<g><path style="opacity:0.992" fill="#ad49a6" d="M 29.5,22.5 C 30.1667,23.5 30.8333,24.5 31.5,25.5C 31.5,27.5 31.5,29.5 31.5,31.5C 30.8333,31.5 30.1667,31.5 29.5,31.5C 29.5,28.5 29.5,25.5 29.5,22.5 Z"/></g>
<g><path style="opacity:0.008" fill="#007fff" d="M 10.5,30.5 C 10.8333,30.5 11.1667,30.5 11.5,30.5C 11.5,30.8333 11.5,31.1667 11.5,31.5C 11.1667,31.1667 10.8333,30.8333 10.5,30.5 Z"/></g>
</svg>
