<?xml version="1.0" encoding="UTF-8"?>
<!DOCTYPE svg PUBLIC "-//W3C//DTD SVG 1.1//EN" "http://www.w3.org/Graphics/SVG/1.1/DTD/svg11.dtd">
<svg xmlns="http://www.w3.org/2000/svg" version="1.1" width="600px" height="600px" style="shape-rendering:geometricPrecision; text-rendering:geometricPrecision; image-rendering:optimizeQuality; fill-rule:evenodd; clip-rule:evenodd" xmlns:xlink="http://www.w3.org/1999/xlink">
<g><path style="opacity:1" fill="#fefefe" d="M -0.5,-0.5 C 199.5,-0.5 399.5,-0.5 599.5,-0.5C 599.5,199.5 599.5,399.5 599.5,599.5C 399.5,599.5 199.5,599.5 -0.5,599.5C -0.5,399.5 -0.5,199.5 -0.5,-0.5 Z"/></g>
<g><path style="opacity:1" fill="#010101" d="M 291.5,29.5 C 345.622,28.8701 387.122,51.2035 416,96.5C 424.156,110.8 428.989,126.133 430.5,142.5C 430.5,160.5 430.5,178.5 430.5,196.5C 448.833,196.5 467.167,196.5 485.5,196.5C 485.5,292.167 485.5,387.833 485.5,483.5C 423.293,511.602 361.293,540.269 299.5,569.5C 237.713,541.107 176.047,512.44 114.5,483.5C 113.5,387.169 113.167,290.836 113.5,194.5C 131.5,194.5 149.5,194.5 167.5,194.5C 167.076,174.793 167.576,155.126 169,135.5C 179.54,88.6281 207.04,56.1281 251.5,38C 259.867,34.575 268.533,32.4084 277.5,31.5C 282.414,31.6382 287.081,30.9715 291.5,29.5 Z"/></g>
<g><path style="opacity:1" fill="#464646" d="M 291.5,29.5 C 287.081,30.9715 282.414,31.6382 277.5,31.5C 281.919,30.0285 286.586,29.3618 291.5,29.5 Z"/></g>
<g><path style="opacity:1" fill="#fefefe" d="M 363.5,194.5 C 320.833,194.5 278.167,194.5 235.5,194.5C 235.5,178.5 235.5,162.5 235.5,146.5C 239.871,125.617 251.871,110.784 271.5,102C 302.915,91.0374 330.081,97.5374 353,121.5C 357.665,127.831 360.998,134.831 363,142.5C 363.5,159.83 363.667,177.163 363.5,194.5 Z"/></g>
<g><path style="opacity:1" fill="#717171" d="M 235.5,146.5 C 235.5,162.5 235.5,178.5 235.5,194.5C 278.167,194.5 320.833,194.5 363.5,194.5C 320.67,195.499 277.67,195.832 234.5,195.5C 234.17,178.991 234.504,162.658 235.5,146.5 Z"/></g>
<g><path style="opacity:1" fill="#848484" d="M 430.5,142.5 C 431.497,159.992 431.83,177.659 431.5,195.5C 449.674,195.17 467.674,195.503 485.5,196.5C 467.167,196.5 448.833,196.5 430.5,196.5C 430.5,178.5 430.5,160.5 430.5,142.5 Z"/></g>
<g><path style="opacity:1" fill="#e7e7e7" d="M 409.5,436.5 C 409.5,379.167 409.5,321.833 409.5,264.5C 336.167,264.5 262.833,264.5 189.5,264.5C 189.5,321.833 189.5,379.167 189.5,436.5C 188.501,379.002 188.168,321.336 188.5,263.5C 262.5,263.5 336.5,263.5 410.5,263.5C 410.832,321.336 410.499,379.002 409.5,436.5 Z"/></g>
<g><path style="opacity:1" fill="#fefefe" d="M 409.5,436.5 C 373.044,454.142 336.211,471.142 299,487.5C 262.001,471.415 225.501,454.415 189.5,436.5C 189.5,379.167 189.5,321.833 189.5,264.5C 262.833,264.5 336.167,264.5 409.5,264.5C 409.5,321.833 409.5,379.167 409.5,436.5 Z"/></g>
</svg>
