<?xml version="1.0" encoding="UTF-8"?>
<!DOCTYPE svg PUBLIC "-//W3C//DTD SVG 1.1//EN" "http://www.w3.org/Graphics/SVG/1.1/DTD/svg11.dtd">
<svg xmlns="http://www.w3.org/2000/svg" version="1.1" width="600px" height="600px" style="shape-rendering:geometricPrecision; text-rendering:geometricPrecision; image-rendering:optimizeQuality; fill-rule:evenodd; clip-rule:evenodd" xmlns:xlink="http://www.w3.org/1999/xlink">
<g><path style="opacity:1" fill="#fefefe" d="M -0.5,-0.5 C 199.5,-0.5 399.5,-0.5 599.5,-0.5C 599.5,199.5 599.5,399.5 599.5,599.5C 399.5,599.5 199.5,599.5 -0.5,599.5C -0.5,399.5 -0.5,199.5 -0.5,-0.5 Z"/></g>
<g><path style="opacity:1" fill="#0a05fe" d="M 94.5,226.5 C 94.5,231.5 94.5,236.5 94.5,241.5C 94.5,246.167 94.5,250.833 94.5,255.5C 94.5,257.5 94.5,259.5 94.5,261.5C 94.5,263.167 94.5,264.833 94.5,266.5C 94.5,268.167 94.5,269.833 94.5,271.5C 94.5,274.5 94.5,277.5 94.5,280.5C 94.5,282.5 94.5,284.5 94.5,286.5C 94.5,291.167 94.5,295.833 94.5,300.5C 94.5,304.833 94.5,309.167 94.5,313.5C 94.1918,319.425 94.5251,325.259 95.5,331C 107.771,335.202 120.105,339.202 132.5,343C 133.756,343.417 134.423,344.25 134.5,345.5C 122.797,358.173 108.797,367.007 92.5,372C 39.7481,346.998 18.9148,305.498 30,247.5C 51.3972,240.201 72.8972,233.201 94.5,226.5 Z"/></g>
<g><path style="opacity:1" fill="#43f797" d="M 108.5,231.5 C 114.702,232.343 120.369,234.343 125.5,237.5C 125.47,238.497 125.97,239.164 127,239.5C 137.321,242.994 147.821,245.994 158.5,248.5C 158.663,250.857 158.497,253.19 158,255.5C 137.284,248.477 116.618,242.144 96,236.5C 95.5034,234.19 95.3367,231.857 95.5,229.5C 99.8072,230.327 104.14,230.993 108.5,231.5 Z"/></g>
<g><path style="opacity:1" fill="#2ed9b6" d="M 95.5,243.5 C 116.497,249.666 137.33,256.332 158,263.5C 158.232,262.263 158.732,261.263 159.5,260.5C 159.5,262.833 159.5,265.167 159.5,267.5C 158.883,267.611 158.383,267.944 158,268.5C 137.33,261.332 116.496,254.665 95.5,248.5C 95.5,246.833 95.5,245.167 95.5,243.5 Z"/></g>
<g><path style="opacity:1" fill="#3ceaa6" d="M 94.5,226.5 C 99.3563,227.873 104.023,229.539 108.5,231.5C 104.14,230.993 99.8072,230.327 95.5,229.5C 95.3367,231.857 95.5034,234.19 96,236.5C 116.618,242.144 137.284,248.477 158,255.5C 158.497,253.19 158.663,250.857 158.5,248.5C 147.821,245.994 137.321,242.994 127,239.5C 125.97,239.164 125.47,238.497 125.5,237.5C 136.733,240.022 147.733,243.355 158.5,247.5C 159.492,251.783 159.826,256.116 159.5,260.5C 158.732,261.263 158.232,262.263 158,263.5C 137.33,256.332 116.497,249.666 95.5,243.5C 95.6716,242.508 95.3382,241.842 94.5,241.5C 94.5,236.5 94.5,231.5 94.5,226.5 Z"/></g>
<g><path style="opacity:1" fill="#26cbc5" d="M 94.5,241.5 C 95.3382,241.842 95.6716,242.508 95.5,243.5C 95.5,245.167 95.5,246.833 95.5,248.5C 116.496,254.665 137.33,261.332 158,268.5C 158.383,267.944 158.883,267.611 159.5,267.5C 159.5,269.833 159.5,272.167 159.5,274.5C 156.813,274.664 154.146,274.497 151.5,274C 132.906,267.857 114.24,262.024 95.5,256.5C 95.5,255.833 95.1667,255.5 94.5,255.5C 94.5,250.833 94.5,246.167 94.5,241.5 Z"/></g>
<g><path style="opacity:1" fill="#1bbcd5" d="M 95.5,256.5 C 114.24,262.024 132.906,267.857 151.5,274C 154.146,274.497 156.813,274.664 159.5,274.5C 159.5,277.5 159.5,280.5 159.5,283.5C 159.167,283.5 158.833,283.5 158.5,283.5C 158.428,281.689 157.595,280.356 156,279.5C 136.476,273.411 116.976,267.244 97.5,261C 95.8934,259.951 95.2267,258.451 95.5,256.5 Z"/></g>
<g><path style="opacity:1" fill="#1006ff" d="M 497.5,284.5 C 489.082,284.802 480.748,284.469 472.5,283.5C 471.641,280.548 469.641,278.715 466.5,278C 461.382,277.112 456.382,277.445 451.5,279C 448.39,283.637 449.724,286.637 455.5,288C 465.876,290.511 476.209,293.177 486.5,296C 497.227,301.293 501.06,309.793 498,321.5C 495.274,329.891 489.608,335.224 481,337.5C 464.479,342.667 448.646,341.167 433.5,333C 428.854,329.526 425.854,325.026 424.5,319.5C 424.5,317.833 424.5,316.167 424.5,314.5C 432.5,314.5 440.5,314.5 448.5,314.5C 449.614,317.449 451.614,319.615 454.5,321C 459.5,321.667 464.5,321.667 469.5,321C 475.141,319.425 475.808,316.759 471.5,313C 460.826,310.333 450.159,307.666 439.5,305C 427.975,298.456 423.808,288.622 427,275.5C 430.874,267.133 437.374,261.966 446.5,260C 455.5,259.333 464.5,259.333 473.5,260C 487.789,262.121 495.789,270.288 497.5,284.5 Z"/></g>
<g><path style="opacity:1" fill="#14b3dd" d="M 94.5,255.5 C 95.1667,255.5 95.5,255.833 95.5,256.5C 95.2267,258.451 95.8934,259.951 97.5,261C 116.976,267.244 136.476,273.411 156,279.5C 157.595,280.356 158.428,281.689 158.5,283.5C 137.882,276.905 117.215,270.405 96.5,264C 95.9341,263.005 95.2674,262.172 94.5,261.5C 94.5,259.5 94.5,257.5 94.5,255.5 Z"/></g>
<g><path style="opacity:1" fill="#1509ff" d="M 220.5,337.5 C 220.5,319.833 220.5,302.167 220.5,284.5C 213.833,284.5 207.167,284.5 200.5,284.5C 200.5,276.5 200.5,268.5 200.5,260.5C 222.167,260.5 243.833,260.5 265.5,260.5C 265.5,268.5 265.5,276.5 265.5,284.5C 259.167,284.5 252.833,284.5 246.5,284.5C 246.5,302.167 246.5,319.833 246.5,337.5C 237.833,337.5 229.167,337.5 220.5,337.5 Z"/></g>
<g><path style="opacity:1" fill="#0f06ff" d="M 298.5,261.5 C 298.174,265.884 298.508,270.217 299.5,274.5C 300.107,274.376 300.44,274.043 300.5,273.5C 308.275,263.236 318.609,259.236 331.5,261.5C 331.5,269.833 331.5,278.167 331.5,286.5C 319.271,284.183 309.437,287.849 302,297.5C 301.333,299.5 300.667,301.5 300,303.5C 299.5,314.828 299.333,326.162 299.5,337.5C 290.833,337.5 282.167,337.5 273.5,337.5C 273.5,311.833 273.5,286.167 273.5,260.5C 282.017,260.174 290.35,260.507 298.5,261.5 Z"/></g>
<g><path style="opacity:1" fill="#7b79fe" d="M 298.5,261.5 C 299.167,265.5 299.833,269.5 300.5,273.5C 300.44,274.043 300.107,274.376 299.5,274.5C 298.508,270.217 298.174,265.884 298.5,261.5 Z"/></g>
<g><path style="opacity:1" fill="#0903ff" d="M 338.5,261.5 C 347.167,261.5 355.833,261.5 364.5,261.5C 364.171,276.676 364.504,291.676 365.5,306.5C 367.95,317.059 374.283,320.225 384.5,316C 388.227,313.045 390.227,309.212 390.5,304.5C 391.496,290.343 391.829,276.01 391.5,261.5C 399.833,261.5 408.167,261.5 416.5,261.5C 416.5,286.833 416.5,312.167 416.5,337.5C 407.833,337.5 399.167,337.5 390.5,337.5C 391.566,330.528 389.899,329.695 385.5,335C 373.488,340.999 361.488,340.999 349.5,335C 343.225,329.617 339.725,322.784 339,314.5C 338.5,296.836 338.333,279.17 338.5,261.5 Z"/></g>
<g><path style="opacity:1" fill="#7c79fe" d="M 338.5,261.5 C 347.318,260.507 356.318,260.173 365.5,260.5C 365.5,275.833 365.5,291.167 365.5,306.5C 364.504,291.676 364.171,276.676 364.5,261.5C 355.833,261.5 347.167,261.5 338.5,261.5 Z"/></g>
<g><path style="opacity:1" fill="#605aff" d="M 416.5,337.5 C 416.5,312.167 416.5,286.833 416.5,261.5C 408.167,261.5 399.833,261.5 391.5,261.5C 391.829,276.01 391.496,290.343 390.5,304.5C 390.5,289.833 390.5,275.167 390.5,260.5C 399.5,260.5 408.5,260.5 417.5,260.5C 417.831,286.339 417.498,312.005 416.5,337.5 Z"/></g>
<g><path style="opacity:1" fill="#1509ff" d="M 569.5,284.5 C 562.833,284.5 556.167,284.5 549.5,284.5C 549.5,302.167 549.5,319.833 549.5,337.5C 540.833,337.5 532.167,337.5 523.5,337.5C 523.5,319.833 523.5,302.167 523.5,284.5C 517.167,284.5 510.833,284.5 504.5,284.5C 504.5,276.5 504.5,268.5 504.5,260.5C 526.167,260.5 547.833,260.5 569.5,260.5C 569.5,268.5 569.5,276.5 569.5,284.5 Z"/></g>
<g><path style="opacity:1" fill="#0ea8e8" d="M 94.5,261.5 C 95.2674,262.172 95.9341,263.005 96.5,264C 117.215,270.405 137.882,276.905 158.5,283.5C 158.833,283.5 159.167,283.5 159.5,283.5C 159.5,285.833 159.5,288.167 159.5,290.5C 158.733,289.828 158.066,288.995 157.5,288C 137.439,281.868 117.439,275.535 97.5,269C 96.3094,268.302 95.3094,267.469 94.5,266.5C 94.5,264.833 94.5,263.167 94.5,261.5 Z"/></g>
<g><path style="opacity:1" fill="#028afe" d="M 94.5,271.5 C 115.472,279.268 136.806,286.268 158.5,292.5C 158.5,295.167 158.5,297.833 158.5,300.5C 158.784,302.415 158.451,304.081 157.5,305.5C 157.5,304.167 157.5,302.833 157.5,301.5C 137.488,295.441 117.488,289.274 97.5,283C 96.3094,282.302 95.3094,281.469 94.5,280.5C 94.5,277.5 94.5,274.5 94.5,271.5 Z"/></g>
<g><path style="opacity:1" fill="#0f9ff3" d="M 94.5,266.5 C 95.3094,267.469 96.3094,268.302 97.5,269C 117.439,275.535 137.439,281.868 157.5,288C 158.066,288.995 158.733,289.828 159.5,290.5C 159.813,294.042 159.479,297.375 158.5,300.5C 158.5,297.833 158.5,295.167 158.5,292.5C 136.806,286.268 115.472,279.268 94.5,271.5C 94.5,269.833 94.5,268.167 94.5,266.5 Z"/></g>
<g><path style="opacity:1" fill="#a6a3ff" d="M 472.5,283.5 C 480.748,284.469 489.082,284.802 497.5,284.5C 493.514,285.166 489.347,285.499 485,285.5C 480.443,285.491 476.276,284.825 472.5,283.5 Z"/></g>
<g><path style="opacity:1" fill="#9593ff" d="M 569.5,284.5 C 563.355,285.49 557.022,285.823 550.5,285.5C 550.83,303.008 550.497,320.341 549.5,337.5C 549.5,319.833 549.5,302.167 549.5,284.5C 556.167,284.5 562.833,284.5 569.5,284.5 Z"/></g>
<g><path style="opacity:1" fill="#9f9dff" d="M 200.5,284.5 C 207.167,284.5 213.833,284.5 220.5,284.5C 220.5,302.167 220.5,319.833 220.5,337.5C 219.503,320.341 219.17,303.008 219.5,285.5C 212.978,285.823 206.645,285.49 200.5,284.5 Z"/></g>
<g><path style="opacity:1" fill="#0174fe" d="M 94.5,280.5 C 95.3094,281.469 96.3094,282.302 97.5,283C 117.488,289.274 137.488,295.441 157.5,301.5C 157.5,302.833 157.5,304.167 157.5,305.5C 157.072,308.785 156.072,311.785 154.5,314.5C 154.423,313.25 153.756,312.417 152.5,312C 133.627,305.653 114.627,299.819 95.5,294.5C 95.8064,291.615 95.4731,288.948 94.5,286.5C 94.5,284.5 94.5,282.5 94.5,280.5 Z"/></g>
<g><path style="opacity:1" fill="#015ffe" d="M 94.5,286.5 C 95.4731,288.948 95.8064,291.615 95.5,294.5C 114.627,299.819 133.627,305.653 152.5,312C 153.756,312.417 154.423,313.25 154.5,314.5C 153.925,317.912 152.592,320.912 150.5,323.5C 150.5,322.5 150.5,321.5 150.5,320.5C 132.761,315.31 115.094,309.81 97.5,304C 96.1859,303.015 95.1859,301.848 94.5,300.5C 94.5,295.833 94.5,291.167 94.5,286.5 Z"/></g>
<g><path style="opacity:1" fill="#0349fe" d="M 94.5,300.5 C 95.1859,301.848 96.1859,303.015 97.5,304C 115.094,309.81 132.761,315.31 150.5,320.5C 150.5,321.5 150.5,322.5 150.5,323.5C 149,327.173 147,330.506 144.5,333.5C 144.5,332.5 144.5,331.5 144.5,330.5C 128.761,325.976 113.094,321.143 97.5,316C 96.3094,315.302 95.3094,314.469 94.5,313.5C 94.5,309.167 94.5,304.833 94.5,300.5 Z"/></g>
<g><path style="opacity:1" fill="#645efe" d="M 448.5,314.5 C 440.5,314.5 432.5,314.5 424.5,314.5C 424.5,316.167 424.5,317.833 424.5,319.5C 423.539,317.735 423.205,315.735 423.5,313.5C 432.017,313.174 440.35,313.507 448.5,314.5 Z"/></g>
<g><path style="opacity:1" fill="#042ffe" d="M 94.5,313.5 C 95.3094,314.469 96.3094,315.302 97.5,316C 113.094,321.143 128.761,325.976 144.5,330.5C 144.5,331.5 144.5,332.5 144.5,333.5C 141.514,337.817 138.18,341.817 134.5,345.5C 134.423,344.25 133.756,343.417 132.5,343C 120.105,339.202 107.771,335.202 95.5,331C 94.5251,325.259 94.1918,319.425 94.5,313.5 Z"/></g>
</svg>
