<?xml version="1.0" encoding="UTF-8"?>
<!DOCTYPE svg PUBLIC "-//W3C//DTD SVG 1.1//EN" "http://www.w3.org/Graphics/SVG/1.1/DTD/svg11.dtd">
<svg xmlns="http://www.w3.org/2000/svg" version="1.1" width="600px" height="600px" style="shape-rendering:geometricPrecision; text-rendering:geometricPrecision; image-rendering:optimizeQuality; fill-rule:evenodd; clip-rule:evenodd" xmlns:xlink="http://www.w3.org/1999/xlink">
<g><path style="opacity:1" fill="#fefefe" d="M -0.5,-0.5 C 199.5,-0.5 399.5,-0.5 599.5,-0.5C 599.5,199.5 599.5,399.5 599.5,599.5C 399.5,599.5 199.5,599.5 -0.5,599.5C -0.5,399.5 -0.5,199.5 -0.5,-0.5 Z"/></g>
<g><path style="opacity:1" fill="#1e7efc" d="M 313.5,30.5 C 308.489,30.3341 303.489,30.5007 298.5,31C 358.007,90.5134 393.673,162.013 405.5,245.5C 393.915,233.234 380.915,222.9 366.5,214.5C 367.391,213.739 368.058,212.739 368.5,211.5C 349.527,140.768 312.527,81.6016 257.5,34C 261.699,33.4723 265.699,32.6389 269.5,31.5C 284.227,29.3603 298.894,29.0269 313.5,30.5 Z"/></g>
<g><path style="opacity:1" fill="#197bfc" d="M 313.5,30.5 C 317.702,30.1832 321.702,30.5166 325.5,31.5C 324.448,31.3505 323.448,31.5172 322.5,32C 387.698,105.265 422.364,191.099 426.5,289.5C 421.5,295.167 416.167,300.5 410.5,305.5C 409.669,294.341 409.169,283.007 409,271.5C 408.716,264.741 407.882,258.075 406.5,251.5C 406.675,249.379 406.341,247.379 405.5,245.5C 393.673,162.013 358.007,90.5134 298.5,31C 303.489,30.5007 308.489,30.3341 313.5,30.5 Z"/></g>
<g><path style="opacity:1" fill="#1679fc" d="M 325.5,31.5 C 340.905,32.5662 355.905,35.2329 370.5,39.5C 369.448,39.3505 368.448,39.5172 367.5,40C 424.656,114.295 453.656,198.462 454.5,292.5C 450.668,288.836 446.668,285.336 442.5,282C 440.167,281.333 437.833,281.333 435.5,282C 432.899,285.112 429.899,287.612 426.5,289.5C 422.364,191.099 387.698,105.265 322.5,32C 323.448,31.5172 324.448,31.3505 325.5,31.5 Z"/></g>
<g><path style="opacity:1" fill="#2380fb" d="M 269.5,31.5 C 265.699,32.6389 261.699,33.4723 257.5,34C 312.527,81.6016 349.527,140.768 368.5,211.5C 368.058,212.739 367.391,213.739 366.5,214.5C 360.782,212.095 355.115,209.595 349.5,207C 343.03,205.452 336.696,203.619 330.5,201.5C 326.547,189.472 321.547,176.805 315.5,163.5C 315.846,162.304 316.346,162.304 317,163.5C 321.943,175.054 326.61,186.721 331,198.5C 332.185,200.559 333.352,200.726 334.5,199C 312.969,134.893 275.302,82.5601 221.5,42C 222.737,41.7679 223.737,41.2679 224.5,40.5C 239.061,35.5599 254.061,32.5599 269.5,31.5 Z"/></g>
<g><path style="opacity:1" fill="#1177fc" d="M 370.5,39.5 C 383.942,42.9804 396.942,47.647 409.5,53.5C 408.761,53.369 408.094,53.5357 407.5,54C 474.864,161.007 495.364,276.507 469,400.5C 456.826,452.333 436.326,500.5 407.5,545C 408.094,545.464 408.761,545.631 409.5,545.5C 397.002,551.334 384.002,556.001 370.5,559.5C 369.448,559.649 368.448,559.483 367.5,559C 421.119,488.911 450.453,409.744 455.5,321.5C 458.129,318.369 460.962,315.369 464,312.5C 466.19,310.217 466.857,307.551 466,304.5C 461.963,300.631 458.13,296.631 454.5,292.5C 453.656,198.462 424.656,114.295 367.5,40C 368.448,39.5172 369.448,39.3505 370.5,39.5 Z"/></g>
<g><path style="opacity:1" fill="#2983fb" d="M 224.5,40.5 C 223.737,41.2679 222.737,41.7679 221.5,42C 275.302,82.5601 312.969,134.893 334.5,199C 333.352,200.726 332.185,200.559 331,198.5C 326.61,186.721 321.943,175.054 317,163.5C 316.346,162.304 315.846,162.304 315.5,163.5C 321.547,176.805 326.547,189.472 330.5,201.5C 323.153,200.499 315.82,199.499 308.5,198.5C 303.025,197.511 297.358,197.178 291.5,197.5C 269.351,140.183 232.351,95.016 180.5,62C 179.177,61.1841 178.511,60.0174 178.5,58.5C 192.918,50.3567 208.252,44.3567 224.5,40.5 Z"/></g>
<g><path style="opacity:1" fill="#0e75fd" d="M 409.5,53.5 C 418.979,57.405 427.979,62.0716 436.5,67.5C 435.624,67.3691 434.957,67.7025 434.5,68.5C 485.508,160.035 504.675,257.368 492,360.5C 483.692,420.925 464.525,477.592 434.5,530.5C 434.957,531.298 435.624,531.631 436.5,531.5C 427.979,536.928 418.979,541.595 409.5,545.5C 408.761,545.631 408.094,545.464 407.5,545C 436.326,500.5 456.826,452.333 469,400.5C 495.364,276.507 474.864,161.007 407.5,54C 408.094,53.5357 408.761,53.369 409.5,53.5 Z"/></g>
<g><path style="opacity:1" fill="#2f86fa" d="M 178.5,58.5 C 178.511,60.0174 179.177,61.1841 180.5,62C 232.351,95.016 269.351,140.183 291.5,197.5C 297.358,197.178 303.025,197.511 308.5,198.5C 296.086,198.083 283.752,198.75 271.5,200.5C 267.961,200.269 264.461,200.269 261,200.5C 237.606,147.271 200.439,106.604 149.5,78.5C 148.702,78.0431 148.369,77.3764 148.5,76.5C 157.709,69.3147 167.709,63.3147 178.5,58.5 Z"/></g>
<g><path style="opacity:1" fill="#0a74fd" d="M 436.5,67.5 C 455.834,78.1599 473.168,91.4932 488.5,107.5C 487.957,107.56 487.624,107.893 487.5,108.5C 533.905,224.406 537.739,341.74 499,460.5C 495.265,470.539 491.431,480.539 487.5,490.5C 487.624,491.107 487.957,491.44 488.5,491.5C 473.168,507.507 455.834,520.84 436.5,531.5C 435.624,531.631 434.957,531.298 434.5,530.5C 464.525,477.592 483.692,420.925 492,360.5C 504.675,257.368 485.508,160.035 434.5,68.5C 434.957,67.7025 435.624,67.3691 436.5,67.5 Z"/></g>
<g><path style="opacity:1" fill="#3689f9" d="M 148.5,76.5 C 148.369,77.3764 148.702,78.0431 149.5,78.5C 200.439,106.604 237.606,147.271 261,200.5C 264.461,200.269 267.961,200.269 271.5,200.5C 255.362,204.228 240.029,210.228 225.5,218.5C 219.897,208.686 214.397,198.686 209,188.5C 185.735,151.739 154.235,124.406 114.5,106.5C 113.702,106.043 113.369,105.376 113.5,104.5C 124.007,93.6536 135.674,84.3203 148.5,76.5 Z"/></g>
<g><path style="opacity:1" fill="#0871fe" d="M 488.5,107.5 C 548.529,167.557 575.196,240.224 568.5,325.5C 567.111,330.269 566.444,335.269 566.5,340.5C 564.426,351.199 562.093,361.866 559.5,372.5C 558.076,374.515 557.41,376.848 557.5,379.5C 543.63,422.596 520.63,459.93 488.5,491.5C 487.957,491.44 487.624,491.107 487.5,490.5C 491.431,480.539 495.265,470.539 499,460.5C 537.739,341.74 533.905,224.406 487.5,108.5C 487.624,107.893 487.957,107.56 488.5,107.5 Z"/></g>
<g><path style="opacity:1" fill="#4792f8" d="M 76.5,148.5 C 148.205,176.227 185.205,228.56 187.5,305.5C 179.702,298.202 172.035,290.702 164.5,283C 160.586,280.82 156.919,281.154 153.5,284C 147.298,290.369 140.965,296.536 134.5,302.5C 135.977,263.625 120.31,232.791 87.5,210C 76.3924,202.864 64.5591,198.364 52,196.5C 51.5172,195.552 51.3505,194.552 51.5,193.5C 57.8037,177.241 66.137,162.241 76.5,148.5 Z"/></g>
<g><path style="opacity:1" fill="#4b94f7" d="M 51.5,193.5 C 51.3505,194.552 51.5172,195.552 52,196.5C 64.5591,198.364 76.3924,202.864 87.5,210C 120.31,232.791 135.977,263.625 134.5,302.5C 131.7,305.973 131.867,309.307 135,312.5C 144.005,320.338 152.505,328.672 160.5,337.5C 149.934,370.973 129.1,397.306 98,416.5C 91.529,419.527 85.8624,422.86 81,426.5C 80.586,426.043 80.086,425.709 79.5,425.5C 75.8161,427.258 71.9828,428.592 68,429.5C 66.4053,430.356 65.572,431.689 65.5,433.5C 56.6168,418.729 49.6168,403.062 44.5,386.5C 60.5693,381.964 75.236,374.464 88.5,364C 117.97,333.392 124.137,298.559 107,259.5C 93.7152,234.756 73.2152,219.589 45.5,214C 44.7476,213.329 44.4142,212.496 44.5,211.5C 46.0668,205.121 48.4002,199.121 51.5,193.5 Z"/></g>
<g><path style="opacity:1" fill="#fdfdfe" d="M 308.5,198.5 C 315.82,199.499 323.153,200.499 330.5,201.5C 336.696,203.619 343.03,205.452 349.5,207C 355.115,209.595 360.782,212.095 366.5,214.5C 380.915,222.9 393.915,233.234 405.5,245.5C 406.341,247.379 406.675,249.379 406.5,251.5C 398.447,260.888 389.447,269.221 379.5,276.5C 371.754,270.929 364.421,264.762 357.5,258C 354.941,256.223 352.274,254.723 349.5,253.5C 337.266,245.978 323.933,241.645 309.5,240.5C 281.902,236.921 257.569,244.254 236.5,262.5C 230.493,267.508 224.493,272.508 218.5,277.5C 208.879,269.713 200.046,261.047 192,251.5C 191.333,250.167 191.333,248.833 192,247.5C 201.883,236.1 213.05,226.433 225.5,218.5C 240.029,210.228 255.362,204.228 271.5,200.5C 283.752,198.75 296.086,198.083 308.5,198.5 Z"/></g>
<g><path style="opacity:1" fill="#4f96f7" d="M 44.5,211.5 C 44.4142,212.496 44.7476,213.329 45.5,214C 73.2152,219.589 93.7152,234.756 107,259.5C 124.137,298.559 117.97,333.392 88.5,364C 75.236,374.464 60.5693,381.964 44.5,386.5C 41.7557,379.878 39.7557,372.878 38.5,365.5C 73.2879,357.318 92.2879,335.318 95.5,299.5C 94.5074,274.998 83.8407,256.164 63.5,243C 56.2405,239.08 48.5738,236.247 40.5,234.5C 39.2867,234.253 38.62,233.586 38.5,232.5C 39.4998,225.138 41.4998,218.138 44.5,211.5 Z"/></g>
<g><path style="opacity:1" fill="#5599f6" d="M 38.5,232.5 C 38.62,233.586 39.2867,234.253 40.5,234.5C 48.5738,236.247 56.2405,239.08 63.5,243C 83.8407,256.164 94.5074,274.998 95.5,299.5C 92.2879,335.318 73.2879,357.318 38.5,365.5C 26.5194,321.144 26.5194,276.811 38.5,232.5 Z"/></g>
<g><path style="opacity:1" fill="#2983fa" d="M 309.5,240.5 C 323.933,241.645 337.266,245.978 349.5,253.5C 348.414,253.62 347.747,254.287 347.5,255.5C 350.868,278.864 351.202,302.197 348.5,325.5C 336.532,315.199 325.198,304.199 314.5,292.5C 315.611,287.584 315.778,282.584 315,277.5C 313.991,265.429 312.491,253.429 310.5,241.5C 309.022,241.238 307.689,241.571 306.5,242.5C 308.838,251.029 310.004,259.696 310,268.5C 308.498,259.488 306.998,250.488 305.5,241.5C 303.143,241.663 300.81,241.497 298.5,241C 302.152,240.501 305.818,240.335 309.5,240.5 Z"/></g>
<g><path style="opacity:1" fill="#3488fa" d="M 309.5,240.5 C 305.818,240.335 302.152,240.501 298.5,241C 300.81,241.497 303.143,241.663 305.5,241.5C 306.998,250.488 308.498,259.488 310,268.5C 310.004,259.696 308.838,251.029 306.5,242.5C 307.689,241.571 309.022,241.238 310.5,241.5C 312.491,253.429 313.991,265.429 315,277.5C 315.778,282.584 315.611,287.584 314.5,292.5C 310.668,288.836 306.668,285.336 302.5,282C 300.167,281.333 297.833,281.333 295.5,282C 276.327,300.34 257.327,318.84 238.5,337.5C 237.853,336.726 237.52,335.726 237.5,334.5C 241.78,310.372 241.446,286.372 236.5,262.5C 257.569,244.254 281.902,236.921 309.5,240.5 Z"/></g>
<g><path style="opacity:1" fill="#217ffb" d="M 406.5,251.5 C 407.882,258.075 408.716,264.741 409,271.5C 409.169,283.007 409.669,294.341 410.5,305.5C 397.461,319.707 383.628,333.04 369,345.5C 361.675,339.341 354.841,332.675 348.5,325.5C 351.202,302.197 350.868,278.864 347.5,255.5C 347.747,254.287 348.414,253.62 349.5,253.5C 352.274,254.723 354.941,256.223 357.5,258C 364.421,264.762 371.754,270.929 379.5,276.5C 389.447,269.221 398.447,260.888 406.5,251.5 Z"/></g>
<g><path style="opacity:1" fill="#3d8df9" d="M 113.5,104.5 C 113.369,105.376 113.702,106.043 114.5,106.5C 154.235,124.406 185.735,151.739 209,188.5C 214.397,198.686 219.897,208.686 225.5,218.5C 213.05,226.433 201.883,236.1 192,247.5C 191.333,248.833 191.333,250.167 192,251.5C 200.046,261.047 208.879,269.713 218.5,277.5C 224.493,272.508 230.493,267.508 236.5,262.5C 241.446,286.372 241.78,310.372 237.5,334.5C 237.52,335.726 237.853,336.726 238.5,337.5C 236.372,340.13 234.039,342.63 231.5,345C 230.167,345.667 228.833,345.667 227.5,345C 214.299,331.631 200.965,318.465 187.5,305.5C 185.205,228.56 148.205,176.227 76.5,148.5C 86.5838,132.071 98.9172,117.404 113.5,104.5 Z"/></g>
<g><path style="opacity:1" fill="#fdfdfe" d="M 187.5,305.5 C 200.965,318.465 214.299,331.631 227.5,345C 228.833,345.667 230.167,345.667 231.5,345C 234.039,342.63 236.372,340.13 238.5,337.5C 257.327,318.84 276.327,300.34 295.5,282C 297.833,281.333 300.167,281.333 302.5,282C 306.668,285.336 310.668,288.836 314.5,292.5C 325.198,304.199 336.532,315.199 348.5,325.5C 354.841,332.675 361.675,339.341 369,345.5C 383.628,333.04 397.461,319.707 410.5,305.5C 416.167,300.5 421.5,295.167 426.5,289.5C 429.899,287.612 432.899,285.112 435.5,282C 437.833,281.333 440.167,281.333 442.5,282C 446.668,285.336 450.668,288.836 454.5,292.5C 458.13,296.631 461.963,300.631 466,304.5C 466.857,307.551 466.19,310.217 464,312.5C 460.962,315.369 458.129,318.369 455.5,321.5C 441.218,334.114 427.552,347.447 414.5,361.5C 404.887,369.445 395.887,378.111 387.5,387.5C 382.669,392.163 377.669,396.663 372.5,401C 367.96,402.338 364.293,401.171 361.5,397.5C 354.833,390.167 347.833,383.167 340.5,376.5C 330.86,367.194 321.193,357.861 311.5,348.5C 308.118,344.116 304.118,340.45 299.5,337.5C 295.217,340.115 291.55,343.448 288.5,347.5C 270.673,365.16 252.673,382.66 234.5,400C 231.97,401.422 229.303,401.755 226.5,401C 224.63,398.96 222.63,397.127 220.5,395.5C 210.193,385.527 199.86,375.527 189.5,365.5C 179.86,356.194 170.193,346.861 160.5,337.5C 152.505,328.672 144.005,320.338 135,312.5C 131.867,309.307 131.7,305.973 134.5,302.5C 140.965,296.536 147.298,290.369 153.5,284C 156.919,281.154 160.586,280.82 164.5,283C 172.035,290.702 179.702,298.202 187.5,305.5 Z"/></g>
<g><path style="opacity:1" fill="#167afc" d="M 455.5,321.5 C 450.453,409.744 421.119,488.911 367.5,559C 368.448,559.483 369.448,559.649 370.5,559.5C 357.5,563.226 344.167,565.893 330.5,567.5C 327.833,567.5 325.167,567.5 322.5,567.5C 320.396,567.799 318.396,567.466 316.5,566.5C 369.875,508.912 403.208,441.078 416.5,363C 416.07,362.035 415.404,361.535 414.5,361.5C 427.552,347.447 441.218,334.114 455.5,321.5 Z"/></g>
<g><path style="opacity:1" fill="#bed6fd" d="M 568.5,325.5 C 568.556,330.731 567.889,335.731 566.5,340.5C 566.444,335.269 567.111,330.269 568.5,325.5 Z"/></g>
<g><path style="opacity:1" fill="#4290f8" d="M 160.5,337.5 C 170.193,346.861 179.86,356.194 189.5,365.5C 188.504,365.586 187.671,365.252 187,364.5C 167.367,410.965 133.867,442.965 86.5,460.5C 85.6143,461.325 85.281,462.325 85.5,463.5C 77.8542,454.225 71.1876,444.225 65.5,433.5C 65.572,431.689 66.4053,430.356 68,429.5C 71.9828,428.592 75.8161,427.258 79.5,425.5C 80.086,425.709 80.586,426.043 81,426.5C 85.8624,422.86 91.529,419.527 98,416.5C 129.1,397.306 149.934,370.973 160.5,337.5 Z"/></g>
<g><path style="opacity:1" fill="#2f86fa" d="M 311.5,348.5 C 310.603,349.598 309.77,349.598 309,348.5C 295.524,411.639 265.358,465.139 218.5,509C 206.545,519.31 193.878,528.643 180.5,537C 179.177,537.816 178.511,538.983 178.5,540.5C 167.709,535.685 157.709,529.685 148.5,522.5C 156.36,516.55 164.693,511.05 173.5,506C 222.733,470.751 255.566,423.917 272,365.5C 278.135,360.366 283.969,354.866 289.5,349C 288.944,348.617 288.611,348.117 288.5,347.5C 291.55,343.448 295.217,340.115 299.5,337.5C 304.118,340.45 308.118,344.116 311.5,348.5 Z"/></g>
<g><path style="opacity:1" fill="#2983fb" d="M 311.5,348.5 C 321.193,357.861 330.86,367.194 340.5,376.5C 322.494,450.188 282.827,510.354 221.5,557C 223.723,557.566 225.723,558.4 227.5,559.5C 210.255,555.311 193.922,548.978 178.5,540.5C 178.511,538.983 179.177,537.816 180.5,537C 193.878,528.643 206.545,519.31 218.5,509C 265.358,465.139 295.524,411.639 309,348.5C 309.77,349.598 310.603,349.598 311.5,348.5 Z"/></g>
<g><path style="opacity:1" fill="#3c8cf8" d="M 189.5,365.5 C 199.86,375.527 210.193,385.527 220.5,395.5C 219.153,394.829 217.986,394.829 217,395.5C 194.355,439.978 160.188,472.311 114.5,492.5C 113.702,492.957 113.369,493.624 113.5,494.5C 102.716,485.387 93.3822,475.054 85.5,463.5C 85.281,462.325 85.6143,461.325 86.5,460.5C 133.867,442.965 167.367,410.965 187,364.5C 187.671,365.252 188.504,365.586 189.5,365.5 Z"/></g>
<g><path style="opacity:1" fill="#3589fa" d="M 288.5,347.5 C 288.611,348.117 288.944,348.617 289.5,349C 283.969,354.866 278.135,360.366 272,365.5C 255.566,423.917 222.733,470.751 173.5,506C 164.693,511.05 156.36,516.55 148.5,522.5C 135.674,514.68 124.007,505.346 113.5,494.5C 113.369,493.624 113.702,492.957 114.5,492.5C 160.188,472.311 194.355,439.978 217,395.5C 217.986,394.829 219.153,394.829 220.5,395.5C 222.63,397.127 224.63,398.96 226.5,401C 229.303,401.755 231.97,401.422 234.5,400C 252.673,382.66 270.673,365.16 288.5,347.5 Z"/></g>
<g><path style="opacity:1" fill="#b1cdfd" d="M 559.5,372.5 C 559.59,375.152 558.924,377.485 557.5,379.5C 557.41,376.848 558.076,374.515 559.5,372.5 Z"/></g>
<g><path style="opacity:1" fill="#2480fb" d="M 340.5,376.5 C 347.833,383.167 354.833,390.167 361.5,397.5C 341.061,463.433 304.727,518.933 252.5,564C 253.416,564.278 254.082,564.778 254.5,565.5C 245.219,564.284 236.219,562.284 227.5,559.5C 225.723,558.4 223.723,557.566 221.5,557C 282.827,510.354 322.494,450.188 340.5,376.5 Z"/></g>
<g><path style="opacity:1" fill="#1c7cfb" d="M 414.5,361.5 C 415.404,361.535 416.07,362.035 416.5,363C 403.208,441.078 369.875,508.912 316.5,566.5C 318.396,567.466 320.396,567.799 322.5,567.5C 319.833,568.167 317.167,568.833 314.5,569.5C 304.418,569.807 294.418,569.474 284.5,568.5C 324.344,529.783 354.51,484.45 375,432.5C 380.012,418.298 384.512,403.965 388.5,389.5C 388.137,388.817 387.804,388.15 387.5,387.5C 395.887,378.111 404.887,369.445 414.5,361.5 Z"/></g>
<g><path style="opacity:1" fill="#1f7efb" d="M 387.5,387.5 C 387.804,388.15 388.137,388.817 388.5,389.5C 384.512,403.965 380.012,418.298 375,432.5C 354.51,484.45 324.344,529.783 284.5,568.5C 274.337,568.667 264.337,567.667 254.5,565.5C 254.082,564.778 253.416,564.278 252.5,564C 304.727,518.933 341.061,463.433 361.5,397.5C 364.293,401.171 367.96,402.338 372.5,401C 377.669,396.663 382.669,392.163 387.5,387.5 Z"/></g>
<g><path style="opacity:1" fill="#bed7fd" d="M 322.5,567.5 C 325.167,567.5 327.833,567.5 330.5,567.5C 325.402,568.957 320.069,569.624 314.5,569.5C 317.167,568.833 319.833,568.167 322.5,567.5 Z"/></g>
</svg>
