<?xml version="1.0" encoding="UTF-8"?>
<!DOCTYPE svg PUBLIC "-//W3C//DTD SVG 1.1//EN" "http://www.w3.org/Graphics/SVG/1.1/DTD/svg11.dtd">
<svg xmlns="http://www.w3.org/2000/svg" version="1.1" width="64px" height="64px" style="shape-rendering:geometricPrecision; text-rendering:geometricPrecision; image-rendering:optimizeQuality; fill-rule:evenodd; clip-rule:evenodd" xmlns:xlink="http://www.w3.org/1999/xlink">
<g><path style="opacity:1" fill="#190602" d="M 50.5,36.5 C 49.5,36.5 48.5,36.5 47.5,36.5C 47.5,28.5 47.5,20.5 47.5,12.5C 37.1613,12.3335 26.828,12.5002 16.5,13C 10.4689,17.521 10.1356,22.3544 15.5,27.5C 15.0431,28.2975 14.3764,28.6309 13.5,28.5C 10.5975,26.6953 9.26412,24.0286 9.5,20.5C 9.4458,16.4422 11.1125,13.2756 14.5,11C 25.761,9.40028 37.0944,9.06694 48.5,10C 49,10.5 49.5,11 50,11.5C 50.4997,19.8267 50.6664,28.16 50.5,36.5 Z"/></g>
<g><path style="opacity:1" fill="#feedd9" d="M 50.5,36.5 C 50.5,37.1667 50.5,37.8333 50.5,38.5C 41.5347,37.4185 32.5347,37.2519 23.5,38C 22.565,40.3806 22.2317,42.8806 22.5,45.5C 23.9778,45.762 25.3112,45.4287 26.5,44.5C 25.1468,43.4763 24.4802,42.143 24.5,40.5C 29.1501,40.6479 30.9834,42.9812 30,47.5C 26.1568,51.7287 22.8235,51.3954 20,46.5C 19.6667,37.1667 19.3333,27.8333 19,18.5C 17.9887,17.6634 16.8221,17.33 15.5,17.5C 17.0617,21.6516 17.7284,25.9849 17.5,30.5C 15.847,30.3404 14.5137,29.6737 13.5,28.5C 14.3764,28.6309 15.0431,28.2975 15.5,27.5C 10.1356,22.3544 10.4689,17.521 16.5,13C 26.828,12.5002 37.1613,12.3335 47.5,12.5C 47.5,20.5 47.5,28.5 47.5,36.5C 48.5,36.5 49.5,36.5 50.5,36.5 Z"/></g>
<g><path style="opacity:1" fill="#190602" d="M 50.5,38.5 C 54.4452,43.0026 54.4452,47.5026 50.5,52C 41.2679,53.6114 31.9346,53.9447 22.5,53C 20.714,52.2155 19.214,51.0488 18,49.5C 17.5005,43.1754 17.3338,36.8421 17.5,30.5C 17.7284,25.9849 17.0617,21.6516 15.5,17.5C 16.8221,17.33 17.9887,17.6634 19,18.5C 19.3333,27.8333 19.6667,37.1667 20,46.5C 22.8235,51.3954 26.1568,51.7287 30,47.5C 30.9834,42.9812 29.1501,40.6479 24.5,40.5C 24.4802,42.143 25.1468,43.4763 26.5,44.5C 25.3112,45.4287 23.9778,45.762 22.5,45.5C 22.2317,42.8806 22.565,40.3806 23.5,38C 32.5347,37.2519 41.5347,37.4185 50.5,38.5 Z"/></g>
<g><path style="opacity:1" fill="#180601" d="M 24.5,18.5 C 30.2055,18.1712 35.8722,18.5046 41.5,19.5C 38.6667,19.8333 35.8333,20.1667 33,20.5C 29.7485,20.4809 26.9151,19.8142 24.5,18.5 Z"/></g>
<g><path style="opacity:1" fill="#180601" d="M 24.5,24.5 C 31.1998,24.17 37.8665,24.5033 44.5,25.5C 44.2907,26.086 43.9574,26.586 43.5,27C 37.1754,27.4995 30.8421,27.6662 24.5,27.5C 24.5,26.5 24.5,25.5 24.5,24.5 Z"/></g>
<g><path style="opacity:1" fill="#190602" d="M 24.5,30.5 C 30.1667,30.5 35.8333,30.5 41.5,30.5C 41.5,31.5 41.5,32.5 41.5,33.5C 35.8333,33.5 30.1667,33.5 24.5,33.5C 24.5,32.5 24.5,31.5 24.5,30.5 Z"/></g>
<g><path style="opacity:1" fill="#eac28d" d="M 31.5,41.5 C 36.9846,40.3483 42.6513,40.1816 48.5,41C 52.5,44 52.5,47 48.5,50C 42.8333,50.6667 37.1667,50.6667 31.5,50C 34.1055,47.0434 34.1055,44.2101 31.5,41.5 Z"/></g>
</svg>
