<?xml version="1.0" encoding="UTF-8"?>
<!DOCTYPE svg PUBLIC "-//W3C//DTD SVG 1.1//EN" "http://www.w3.org/Graphics/SVG/1.1/DTD/svg11.dtd">
<svg xmlns="http://www.w3.org/2000/svg" version="1.1" width="320px" height="320px" style="shape-rendering:geometricPrecision; text-rendering:geometricPrecision; image-rendering:optimizeQuality; fill-rule:evenodd; clip-rule:evenodd" xmlns:xlink="http://www.w3.org/1999/xlink">
<g><path style="opacity:1" fill="#000000" d="M 15.5,15.5 C 111.5,15.5 207.5,15.5 303.5,15.5C 303.5,111.5 303.5,207.5 303.5,303.5C 207.5,303.5 111.5,303.5 15.5,303.5C 15.5,207.5 15.5,111.5 15.5,15.5 Z"/></g>
<g><path style="opacity:1" fill="#f9f9f9" d="M 52.5,134.5 C 53.4849,138.634 53.8182,142.968 53.5,147.5C 61.84,147.334 70.1733,147.5 78.5,148C 70.3333,154.167 62.1667,160.333 54,166.5C 53.6667,172.5 53.3333,178.5 53,184.5C 44.6522,176.319 36.4855,167.986 28.5,159.5C 36.5214,151.146 44.5214,142.813 52.5,134.5 Z"/></g>
<g><path style="opacity:1" fill="#fafafa" d="M 94.5,184.5 C 93.5151,180.366 93.1818,176.032 93.5,171.5C 84.9832,171.826 76.6499,171.493 68.5,170.5C 76.7888,164.718 84.9555,158.718 93,152.5C 93.3333,146.5 93.6667,140.5 94,134.5C 102.348,142.681 110.514,151.014 118.5,159.5C 110.479,167.854 102.479,176.187 94.5,184.5 Z"/></g>
<g><path style="opacity:1" fill="#aaaaaa" d="M 169.5,156.5 C 169.44,157.043 169.107,157.376 168.5,157.5C 167.503,150.866 167.17,144.2 167.5,137.5C 165.833,137.5 164.167,137.5 162.5,137.5C 162.5,148.833 162.5,160.167 162.5,171.5C 164.167,171.5 165.833,171.5 167.5,171.5C 167.205,169.265 167.539,167.265 168.5,165.5C 168.5,167.833 168.5,170.167 168.5,172.5C 166.167,172.5 163.833,172.5 161.5,172.5C 161.5,160.5 161.5,148.5 161.5,136.5C 163.833,136.5 166.167,136.5 168.5,136.5C 168.176,143.354 168.509,150.021 169.5,156.5 Z"/></g>
<g><path style="opacity:1" fill="#f7f7f7" d="M 169.5,156.5 C 171.477,154.186 173.477,151.853 175.5,149.5C 178.446,148.345 181.446,148.179 184.5,149C 181.317,152.015 178.317,155.182 175.5,158.5C 178.747,162.659 181.747,166.992 184.5,171.5C 181.833,172.833 179.167,172.833 176.5,171.5C 174.862,168.696 173.029,166.029 171,163.5C 170.292,164.381 169.458,165.047 168.5,165.5C 167.539,167.265 167.205,169.265 167.5,171.5C 165.833,171.5 164.167,171.5 162.5,171.5C 162.5,160.167 162.5,148.833 162.5,137.5C 164.167,137.5 165.833,137.5 167.5,137.5C 167.17,144.2 167.503,150.866 168.5,157.5C 169.107,157.376 169.44,157.043 169.5,156.5 Z"/></g>
<g><path style="opacity:1" fill="#eeeeee" d="M 195.5,137.5 C 201.971,136.345 207.471,138.011 212,142.5C 212.822,145.517 211.655,147.183 208.5,147.5C 205.717,143.829 202.05,142.662 197.5,144C 194.833,146.333 194.833,148.667 197.5,151C 202.903,151.473 207.737,153.306 212,156.5C 214.906,169.266 209.74,174.766 196.5,173C 191.011,171.021 188.011,167.188 187.5,161.5C 189.262,161.643 190.929,161.309 192.5,160.5C 193.734,163.304 195.734,165.471 198.5,167C 204.923,168.335 207.256,166.001 205.5,160C 201.025,159.123 196.692,157.789 192.5,156C 186.528,148.666 187.528,142.5 195.5,137.5 Z"/></g>
<g><path style="opacity:1" fill="#efefef" d="M 252.5,147.5 C 257.977,147.145 261.81,149.478 264,154.5C 264.499,160.491 264.666,166.491 264.5,172.5C 262.167,172.5 259.833,172.5 257.5,172.5C 257.666,166.824 257.499,161.157 257,155.5C 253.844,152.601 251.178,152.935 249,156.5C 248.501,161.823 248.334,167.156 248.5,172.5C 246.5,172.5 244.5,172.5 242.5,172.5C 242.5,164.5 242.5,156.5 242.5,148.5C 245.079,148.083 247.246,148.75 249,150.5C 250.145,149.364 251.312,148.364 252.5,147.5 Z"/></g>
<g><path style="opacity:1" fill="#ededed" d="M 275.5,147.5 C 279.747,147.178 283.747,148.011 287.5,150C 289.451,151.734 290.451,153.901 290.5,156.5C 288.94,156.519 287.44,156.852 286,157.5C 280.542,151.658 276.375,152.492 273.5,160C 274.315,166.04 277.648,168.04 283.5,166C 283.998,164.842 284.831,164.009 286,163.5C 287.44,164.148 288.94,164.481 290.5,164.5C 290.528,166.582 289.861,168.416 288.5,170C 281.26,175.211 274.76,174.378 269,167.5C 265.408,158.834 267.574,152.168 275.5,147.5 Z"/></g>
<g><path style="opacity:1" fill="#f7f7f7" d="M 146.5,166.5 C 149.962,167.482 153.629,167.815 157.5,167.5C 157.5,168.833 157.5,170.167 157.5,171.5C 151.167,171.5 144.833,171.5 138.5,171.5C 138.5,169.833 138.5,168.167 138.5,166.5C 141.862,162.808 145.195,159.141 148.5,155.5C 149.043,155.44 149.376,155.107 149.5,154.5C 145.893,153.511 142.226,153.177 138.5,153.5C 138.5,151.833 138.5,150.167 138.5,148.5C 144.833,148.5 151.167,148.5 157.5,148.5C 157.662,150.527 157.495,152.527 157,154.5C 153.664,158.668 150.164,162.668 146.5,166.5 Z"/></g>
<g><path style="opacity:1" fill="#f0f0f0" d="M 225.5,180.5 C 223.059,181.756 220.726,181.756 218.5,180.5C 219.898,176.705 221.564,173.039 223.5,169.5C 220.167,162.833 216.833,156.167 213.5,149.5C 216.034,148.223 218.534,148.223 221,149.5C 223.007,153.535 225.007,157.535 227,161.5C 228.667,157.5 230.333,153.5 232,149.5C 234.401,148.398 236.901,148.231 239.5,149C 234.54,159.382 229.874,169.882 225.5,180.5 Z"/></g>
<g><path style="opacity:1" fill="#929292" d="M 138.5,153.5 C 142.226,153.177 145.893,153.511 149.5,154.5C 149.376,155.107 149.043,155.44 148.5,155.5C 145.167,154.833 141.833,154.167 138.5,153.5 Z"/></g>
<g><path style="opacity:1" fill="#b4b4b4" d="M 138.5,166.5 C 138.5,168.167 138.5,169.833 138.5,171.5C 144.833,171.5 151.167,171.5 157.5,171.5C 157.5,170.167 157.5,168.833 157.5,167.5C 153.629,167.815 149.962,167.482 146.5,166.5C 150.5,166.5 154.5,166.5 158.5,166.5C 158.5,168.5 158.5,170.5 158.5,172.5C 151.5,172.5 144.5,172.5 137.5,172.5C 137.205,170.265 137.539,168.265 138.5,166.5 Z"/></g>
<g><path style="opacity:1" fill="#262626" d="M 68.5,170.5 C 76.6499,171.493 84.9832,171.826 93.5,171.5C 93.1818,176.032 93.5151,180.366 94.5,184.5C 94.44,185.043 94.1067,185.376 93.5,185.5C 92.5078,181.217 92.1744,176.884 92.5,172.5C 84.1401,172.831 75.8068,172.498 67.5,171.5C 67.6236,170.893 67.9569,170.56 68.5,170.5 Z"/></g>
<g><path style="opacity:1" fill="#515151" d="M 218.5,180.5 C 220.726,181.756 223.059,181.756 225.5,180.5C 224.666,181.748 223.333,182.415 221.5,182.5C 220.167,182.167 218.833,181.833 217.5,181.5C 217.624,180.893 217.957,180.56 218.5,180.5 Z"/></g>
</svg>
