<?xml version="1.0" encoding="UTF-8"?>
<!DOCTYPE svg PUBLIC "-//W3C//DTD SVG 1.1//EN" "http://www.w3.org/Graphics/SVG/1.1/DTD/svg11.dtd">
<svg xmlns="http://www.w3.org/2000/svg" version="1.1" width="60px" height="60px" style="shape-rendering:geometricPrecision; text-rendering:geometricPrecision; image-rendering:optimizeQuality; fill-rule:evenodd; clip-rule:evenodd" xmlns:xlink="http://www.w3.org/1999/xlink">
<g><path style="opacity:1" fill="#000000" d="M -0.5,-0.5 C 19.5,-0.5 39.5,-0.5 59.5,-0.5C 59.5,19.5 59.5,39.5 59.5,59.5C 39.5,59.5 19.5,59.5 -0.5,59.5C -0.5,39.5 -0.5,19.5 -0.5,-0.5 Z"/></g>
<g><path style="opacity:1" fill="#9b5095" d="M 26.5,15.5 C 28.2303,16.0256 29.5637,17.0256 30.5,18.5C 28.5544,19.0347 27.5544,20.368 27.5,22.5C 26.5,21.8333 25.5,21.1667 24.5,20.5C 24.4021,18.4471 25.0687,16.7804 26.5,15.5 Z"/></g>
<g><path style="opacity:1" fill="#6d4a95" d="M 26.5,15.5 C 25.0687,16.7804 24.4021,18.4471 24.5,20.5C 24.5,22.5 24.5,24.5 24.5,26.5C 22.4458,26.3653 20.7791,27.032 19.5,28.5C 18.824,24.4856 20.1573,21.4856 23.5,19.5C 21.8744,18.0095 20.2077,16.5095 18.5,15C 21.6602,11.8282 24.3269,11.9948 26.5,15.5 Z"/></g>
<g><path style="opacity:1" fill="#130b15" d="M 24.5,20.5 C 25.5,21.1667 26.5,21.8333 27.5,22.5C 29.1667,23.5 30.5,24.8333 31.5,26.5C 29.2972,26.6036 27.2972,27.2702 25.5,28.5C 24.6618,28.1583 24.3284,27.4916 24.5,26.5C 24.5,24.5 24.5,22.5 24.5,20.5 Z"/></g>
<g><path style="opacity:1" fill="#c85899" d="M 30.5,18.5 C 32.8031,20.3247 35.1364,22.1581 37.5,24C 35.5932,25.122 33.5932,25.9553 31.5,26.5C 30.5,24.8333 29.1667,23.5 27.5,22.5C 27.5544,20.368 28.5544,19.0347 30.5,18.5 Z"/></g>
<g><path style="opacity:1" fill="#934681" d="M 24.5,26.5 C 24.3284,27.4916 24.6618,28.1583 25.5,28.5C 25.5,28.8333 25.5,29.1667 25.5,29.5C 25.8064,32.3854 25.4731,35.0521 24.5,37.5C 24.5,35.1667 24.5,32.8333 24.5,30.5C 23.1667,30.5 21.8333,30.5 20.5,30.5C 20.5,33.5 20.5,36.5 20.5,39.5C 19.5184,36.0381 19.185,32.3714 19.5,28.5C 20.7791,27.032 22.4458,26.3653 24.5,26.5 Z"/></g>
<g><path style="opacity:1" fill="#774d9a" d="M 31.5,26.5 C 32.1667,27.5 32.8333,28.5 33.5,29.5C 32.3263,30.5137 31.6596,31.847 31.5,33.5C 29.5,32.1667 27.5,30.8333 25.5,29.5C 25.5,29.1667 25.5,28.8333 25.5,28.5C 27.2972,27.2702 29.2972,26.6036 31.5,26.5 Z"/></g>
<g><path style="opacity:1" fill="#d25b9f" d="M 24.5,37.5 C 23.4863,38.6737 22.153,39.3404 20.5,39.5C 20.5,36.5 20.5,33.5 20.5,30.5C 21.8333,30.5 23.1667,30.5 24.5,30.5C 24.5,32.8333 24.5,35.1667 24.5,37.5 Z"/></g>
<g><path style="opacity:1" fill="#c25699" d="M 33.5,29.5 C 37.1029,31.7631 40.4362,34.4297 43.5,37.5C 41.8087,39.2562 39.8087,39.7562 37.5,39C 35.2368,37.383 33.2368,35.5497 31.5,33.5C 31.6596,31.847 32.3263,30.5137 33.5,29.5 Z"/></g>
</svg>
