<?xml version="1.0" encoding="UTF-8"?>
<!DOCTYPE svg PUBLIC "-//W3C//DTD SVG 1.1//EN" "http://www.w3.org/Graphics/SVG/1.1/DTD/svg11.dtd">
<svg xmlns="http://www.w3.org/2000/svg" version="1.1" width="100px" height="100px" style="shape-rendering:geometricPrecision; text-rendering:geometricPrecision; image-rendering:optimizeQuality; fill-rule:evenodd; clip-rule:evenodd" xmlns:xlink="http://www.w3.org/1999/xlink">
<g><path style="opacity:1" fill="#fefefe" d="M -0.5,-0.5 C 32.8333,-0.5 66.1667,-0.5 99.5,-0.5C 99.5,32.8333 99.5,66.1667 99.5,99.5C 66.1667,99.5 32.8333,99.5 -0.5,99.5C -0.5,66.1667 -0.5,32.8333 -0.5,-0.5 Z"/></g>
<g><path style="opacity:1" fill="#8054a2" d="M 47.5,28.5 C 46.6557,30.8428 45.6557,33.1761 44.5,35.5C 43.5041,35.5858 42.6708,35.2524 42,34.5C 41.5034,36.8098 41.3367,39.1432 41.5,41.5C 38.8333,41.5 36.1667,41.5 33.5,41.5C 33.2148,39.712 33.5481,38.0453 34.5,36.5C 36.6641,35.5857 38.6641,34.419 40.5,33C 37.2026,30.7046 34.2026,28.038 31.5,25C 33.9398,23.6966 36.4398,22.53 39,21.5C 42.3462,23.2503 45.1795,25.5836 47.5,28.5 Z"/></g>
<g><path style="opacity:1" fill="#cf579e" d="M 47.5,28.5 C 50.8103,30.4821 53.8103,32.8154 56.5,35.5C 57.5691,39.0173 56.2358,41.3507 52.5,42.5C 49.2157,40.883 46.5491,38.5497 44.5,35.5C 45.6557,33.1761 46.6557,30.8428 47.5,28.5 Z"/></g>
<g><path style="opacity:1" fill="#e585b7" d="M 56.5,35.5 C 58.34,37.168 60.34,38.668 62.5,40C 59.7034,41.2326 57.0368,42.7326 54.5,44.5C 53.4777,44.1445 52.811,43.4778 52.5,42.5C 56.2358,41.3507 57.5691,39.0173 56.5,35.5 Z"/></g>
<g><path style="opacity:1" fill="#7a52a1" d="M 57.5,50.5 C 55.6096,52.5776 53.2762,53.9109 50.5,54.5C 47.9906,53.0787 45.6572,51.4121 43.5,49.5C 43.1667,48.8333 42.8333,48.1667 42.5,47.5C 45.0351,46.6513 47.5351,45.6513 50,44.5C 53.1912,45.6737 55.6912,47.6737 57.5,50.5 Z"/></g>
<g><path style="opacity:1" fill="#a754a0" d="M 33.5,41.5 C 36.1667,41.5 38.8333,41.5 41.5,41.5C 41.5,43.5 41.5,45.5 41.5,47.5C 41.5,48.8333 41.5,50.1667 41.5,51.5C 38.8333,51.5 36.1667,51.5 33.5,51.5C 33.5,48.1667 33.5,44.8333 33.5,41.5 Z"/></g>
<g><path style="opacity:1" fill="#d45ca1" d="M 33.5,51.5 C 36.1667,51.5 38.8333,51.5 41.5,51.5C 41.5,55.5 41.5,59.5 41.5,63.5C 39.0465,65.0598 36.3798,66.0598 33.5,66.5C 33.5,61.5 33.5,56.5 33.5,51.5 Z"/></g>
<g><path style="opacity:1" fill="#eab3d3" d="M 41.5,47.5 C 41.8333,47.5 42.1667,47.5 42.5,47.5C 42.8333,48.1667 43.1667,48.8333 43.5,49.5C 42.8333,54.1667 42.1667,58.8333 41.5,63.5C 41.5,59.5 41.5,55.5 41.5,51.5C 41.5,50.1667 41.5,48.8333 41.5,47.5 Z"/></g>
<g><path style="opacity:1" fill="#c7569e" d="M 57.5,50.5 C 61.4819,53.1518 65.1486,56.1518 68.5,59.5C 68.2283,62.7322 66.5616,64.7322 63.5,65.5C 58.8482,62.1793 54.5149,58.5126 50.5,54.5C 53.2762,53.9109 55.6096,52.5776 57.5,50.5 Z"/></g>
<g><path style="opacity:1" fill="#e583b6" d="M 68.5,59.5 C 70.487,60.1642 72.1537,61.3308 73.5,63C 71.5,64 69.5,65 67.5,66C 65.9343,66.765 64.6009,66.5983 63.5,65.5C 66.5616,64.7322 68.2283,62.7322 68.5,59.5 Z"/></g>
<g><path style="opacity:1" fill="#565656" d="M 69.5,74.5 C 72.3999,73.0464 73.7332,74.0464 73.5,77.5C 71.0274,77.9118 69.6941,76.9118 69.5,74.5 Z"/></g>
<g><path style="opacity:1" fill="#515151" d="M 69.5,74.5 C 68.8423,75.3984 68.1757,76.3984 67.5,77.5C 66.5,76.1667 65.5,76.1667 64.5,77.5C 62.5658,77.0995 61.0658,76.0995 60,74.5C 56.0926,79.5093 54.2593,79.176 54.5,73.5C 55.8221,73.33 56.9887,73.6634 58,74.5C 58.3333,73.5 58.6667,72.5 59,71.5C 59.6995,73.032 60.8662,74.032 62.5,74.5C 64.906,74.3547 67.2394,74.3547 69.5,74.5 Z"/></g>
<g><path style="opacity:1" fill="#5d5d5d" d="M 39.5,71.5 C 41.549,74.5196 44.2157,75.1862 47.5,73.5C 47.5,74.8333 47.5,76.1667 47.5,77.5C 45.5,77.5 43.5,77.5 41.5,77.5C 41.5875,74.4017 41.0875,74.0684 40,76.5C 39.5065,74.8659 39.3398,73.1992 39.5,71.5 Z"/></g>
<g><path style="opacity:1" fill="#636363" d="M 25.5,71.5 C 27.9115,71.1367 29.4115,72.1367 30,74.5C 31.6667,73.1667 33.3333,73.1667 35,74.5C 36.3333,73.8333 37.3333,72.8333 38,71.5C 38.6667,73.1667 38.6667,74.8333 38,76.5C 37.0255,74.1224 36.3589,74.4557 36,77.5C 32.8649,77.455 29.6982,77.455 26.5,77.5C 25.5344,75.604 25.2011,73.604 25.5,71.5 Z"/></g>
<g><path style="opacity:1" fill="#434343" d="M 50.5,71.5 C 52.3786,71.3932 52.7119,71.8932 51.5,73C 54.0789,74.6117 54.0789,76.1117 51.5,77.5C 48.9722,76.5022 48.9722,75.6689 51.5,75C 50.6634,73.9887 50.33,72.8221 50.5,71.5 Z"/></g>
<g><path style="opacity:1" fill="#eebad7" d="M 32.5,79.5 C 38.5,79.5 44.5,79.5 50.5,79.5C 50.5,80.5 50.5,81.5 50.5,82.5C 48.8762,82.6399 47.7096,81.9733 47,80.5C 46.3333,83.1667 45.6667,83.1667 45,80.5C 41.1638,82.3888 36.9971,83.0555 32.5,82.5C 32.5,81.5 32.5,80.5 32.5,79.5 Z"/></g>
<g><path style="opacity:1" fill="#f0c2db" d="M 59.5,79.5 C 61.8333,79.5 64.1667,79.5 66.5,79.5C 66.5,80.5 66.5,81.5 66.5,82.5C 63.8127,82.6641 61.146,82.4974 58.5,82C 59.2524,81.3292 59.5858,80.4959 59.5,79.5 Z"/></g>
</svg>
