<?xml version="1.0" encoding="UTF-8"?>
<!DOCTYPE svg PUBLIC "-//W3C//DTD SVG 1.1//EN" "http://www.w3.org/Graphics/SVG/1.1/DTD/svg11.dtd">
<svg xmlns="http://www.w3.org/2000/svg" version="1.1" width="100px" height="100px" style="shape-rendering:geometricPrecision; text-rendering:geometricPrecision; image-rendering:optimizeQuality; fill-rule:evenodd; clip-rule:evenodd" xmlns:xlink="http://www.w3.org/1999/xlink">
<g><path style="opacity:1" fill="#010101" d="M -0.5,-0.5 C 32.8333,-0.5 66.1667,-0.5 99.5,-0.5C 99.5,32.8333 99.5,66.1667 99.5,99.5C 66.1667,99.5 32.8333,99.5 -0.5,99.5C -0.5,66.1667 -0.5,32.8333 -0.5,-0.5 Z"/></g>
<g><path style="opacity:1" fill="#85519e" d="M 50.5,30.5 C 47.4283,31.3013 45.7616,33.3013 45.5,36.5C 44.2794,35.9717 43.1127,35.305 42,34.5C 41.5017,37.8168 41.335,41.1501 41.5,44.5C 38.8333,44.5 36.1667,44.5 33.5,44.5C 33.1866,41.7531 33.52,39.0865 34.5,36.5C 36.6641,35.5857 38.6641,34.419 40.5,33C 37.2026,30.7046 34.2026,28.038 31.5,25C 33.9398,23.6966 36.4398,22.53 39,21.5C 43.2955,23.9683 47.1288,26.9683 50.5,30.5 Z"/></g>
<g><path style="opacity:1" fill="#ce599c" d="M 50.5,30.5 C 54.625,33.4526 58.625,36.6193 62.5,40C 59.9952,41.7533 57.3286,43.2533 54.5,44.5C 51.2393,42.0509 48.2393,39.3842 45.5,36.5C 45.7616,33.3013 47.4283,31.3013 50.5,30.5 Z"/></g>
<g><path style="opacity:1" fill="#6f4d9b" d="M 54.5,47.5 C 51.8881,49.0522 50.5548,51.3855 50.5,54.5C 47.4179,52.9252 44.7512,50.7585 42.5,48C 44.9398,46.6966 47.4398,45.53 50,44.5C 51.9812,44.8985 53.4812,45.8985 54.5,47.5 Z"/></g>
<g><path style="opacity:1" fill="#a84c91" d="M 33.5,44.5 C 36.1667,44.5 38.8333,44.5 41.5,44.5C 42.6174,50.9885 42.6174,57.3219 41.5,63.5C 41.5,60.1667 41.5,56.8333 41.5,53.5C 38.8333,53.5 36.1667,53.5 33.5,53.5C 33.5,50.5 33.5,47.5 33.5,44.5 Z"/></g>
<g><path style="opacity:1" fill="#92539c" d="M 54.5,47.5 C 56.5398,49.177 58.5398,50.8437 60.5,52.5C 57.2374,52.9565 54.9041,54.6231 53.5,57.5C 52.1667,56.8333 51.1667,55.8333 50.5,54.5C 50.5548,51.3855 51.8881,49.0522 54.5,47.5 Z"/></g>
<g><path style="opacity:1" fill="#ca589b" d="M 60.5,52.5 C 64.959,55.787 69.2923,59.287 73.5,63C 70.4767,65.1863 67.1433,66.1863 63.5,66C 60.0003,63.3314 56.667,60.498 53.5,57.5C 54.9041,54.6231 57.2374,52.9565 60.5,52.5 Z"/></g>
<g><path style="opacity:1" fill="#d865a4" d="M 33.5,53.5 C 36.1667,53.5 38.8333,53.5 41.5,53.5C 41.5,56.8333 41.5,60.1667 41.5,63.5C 39.0465,65.0598 36.3798,66.0598 33.5,66.5C 33.5,62.1667 33.5,57.8333 33.5,53.5 Z"/></g>
<g><path style="opacity:1" fill="#ececec" d="M 39.5,71.5 C 41.4466,72.6613 42.28,74.3279 42,76.5C 41.3333,73.8333 40.6667,73.8333 40,76.5C 39.5065,74.8659 39.3398,73.1992 39.5,71.5 Z"/></g>
<g><path style="opacity:1" fill="#c2c2c2" d="M 25.5,71.5 C 26.8333,71.5 28.1667,71.5 29.5,71.5C 29.0338,73.2012 29.0338,74.7012 29.5,76C 28.2068,76.49 26.8734,76.6567 25.5,76.5C 25.5,74.8333 25.5,73.1667 25.5,71.5 Z"/></g>
<g><path style="opacity:1" fill="#acacac" d="M 69.5,74.5 C 70.7079,73.7659 72.0413,73.4326 73.5,73.5C 73.7778,75.3464 73.1112,76.6798 71.5,77.5C 70.0815,76.9953 69.4148,75.9953 69.5,74.5 Z"/></g>
<g><path style="opacity:1" fill="#c4c4c4" d="M 43.5,73.5 C 44.8333,73.5 46.1667,73.5 47.5,73.5C 47.5,74.5 47.5,75.5 47.5,76.5C 46.1667,76.5 44.8333,76.5 43.5,76.5C 43.5,75.5 43.5,74.5 43.5,73.5 Z"/></g>
<g><path style="opacity:1" fill="#b2b2b2" d="M 69.5,74.5 C 66.311,78.3509 63.1443,78.3509 60,74.5C 58.6667,77.1667 57.3333,77.1667 56,74.5C 54.9924,79.5409 54.4924,79.2076 54.5,73.5C 55.8221,73.33 56.9887,73.6634 58,74.5C 58.3333,73.5 58.6667,72.5 59,71.5C 62.4627,73.5233 65.9627,74.5233 69.5,74.5 Z"/></g>
<g><path style="opacity:1" fill="#b7b7b7" d="M 37.5,71.5 C 38.4614,73.2646 38.7947,75.2646 38.5,77.5C 35.8023,77.5497 33.6356,76.5497 32,74.5C 30.9125,76.9316 30.4125,76.5983 30.5,73.5C 33.3878,74.0102 35.7211,73.3435 37.5,71.5 Z"/></g>
<g><path style="opacity:1" fill="#bfbfbf" d="M 50.5,71.5 C 53.5983,71.4125 53.9316,71.9125 51.5,73C 54.0789,74.6117 54.0789,76.1117 51.5,77.5C 48.9722,76.5022 48.9722,75.6689 51.5,75C 50.6634,73.9887 50.33,72.8221 50.5,71.5 Z"/></g>
<g><path style="opacity:1" fill="#393939" d="M 33.5,79.5 C 39.0193,80.5383 44.5193,80.5383 50,79.5C 50.6667,80.5 50.6667,81.5 50,82.5C 49.3333,81.1667 48.6667,81.1667 48,82.5C 47.3333,79.8333 46.6667,79.8333 46,82.5C 42.1272,82.2934 37.9605,82.2934 33.5,82.5C 33.5,81.5 33.5,80.5 33.5,79.5 Z"/></g>
</svg>
